<mxfile host="65bd71144e">
    <diagram id="RDTLFmwMPWUtjFS_HUFE" name="Page-1">
        <mxGraphModel dx="1615" dy="1663" grid="1" gridSize="10" guides="1" tooltips="1" connect="1" arrows="1" fold="1" page="1" pageScale="1" pageWidth="850" pageHeight="1100" background="#ffffff" math="0" shadow="1">
            <root>
                <mxCell id="0"/>
                <mxCell id="1" parent="0"/>
                <UserObject label="" mermaidData="{&#xa;  &quot;data&quot;: &quot;classDiagram\n    %% Implementor\n\n    class Color {\n        &lt;&lt;interface&gt;&gt;\n        +getColor() String\n    }\n\n    %% Concrete Implementors\n\n    class Red {\n        +getColor() String\n    }\n\n    class Blue {\n        +getColor() String\n    }\n\n    class Green {\n        +getColor() String\n    }\n\n    class Yellow {\n        +getColor() String\n    }\n\n    %% Abstraction\n\n    class Shape {\n        -Color color\n        +Shape(Color color)\n        +draw() String*\n    }\n\n    %% Refined Abstractions\n\n    class Circle {\n        +Circle(Color color)\n        +draw() String\n    }\n\n    class Square {\n        +Square(Color color)\n        +draw() String\n    }\n\n    class Rectangle {\n        +Rectangle(Color color)\n        +draw() String\n    }\n\n    %% Client\n\n    class BridgeDP {\n        +main(String[] args)\n    }\n\n    %% Relationships\n\n    Color &lt;|.. Red : implements\n    Color &lt;|.. Blue : implements\n    Color &lt;|.. Green : implements\n    Color &lt;|.. Yellow : implements\n\n    Shape &lt;|-- Circle : extends\n    Shape &lt;|-- Square : extends\n    Shape &lt;|-- Rectangle : extends\n\n    Shape --&gt; Color : \&quot;has a\&quot;\n\n    BridgeDP --&gt; Shape : uses\n&quot;&#xa;}" id="2">
                    <mxCell style="shape=image;noLabel=1;verticalAlign=top;imageAspect=1;image=data:image/svg+xml,PHN2ZyBhcmlhLXJvbGVkZXNjcmlwdGlvbj0iY2xhc3MiIHJvbGU9ImdyYXBoaWNzLWRvY3VtZW50IGRvY3VtZW50IiB2aWV3Qm94PSIwIDAgMTE5OC4xMzI5MzQ1NzAzMTI1IDgwMy4yMDAwNzMyNDIxODc1IiBzdHlsZT0ibWF4LXdpZHRoOiAxMTk4LjEzMjkzNDU3MDMxMjVweDsiIGNsYXNzPSJjbGFzc0RpYWdyYW0iIHhtbG5zPSJodHRwOi8vd3d3LnczLm9yZy8yMDAwL3N2ZyIgd2lkdGg9IjEwMCUiIGlkPSJnZU1lcm1haWRPdXRwdXQtMTc1MzExMDU2NTcwMyI+PHN0eWxlPiNnZU1lcm1haWRPdXRwdXQtMTc1MzExMDU2NTcwM3tmb250LWZhbWlseToidHJlYnVjaGV0IG1zIix2ZXJkYW5hLGFyaWFsLHNhbnMtc2VyaWY7Zm9udC1zaXplOjE2cHg7ZmlsbDojMDAwMDAwO30jZ2VNZXJtYWlkT3V0cHV0LTE3NTMxMTA1NjU3MDMgLmVycm9yLWljb257ZmlsbDojNTUyMjIyO30jZ2VNZXJtYWlkT3V0cHV0LTE3NTMxMTA1NjU3MDMgLmVycm9yLXRleHR7ZmlsbDojNTUyMjIyO3N0cm9rZTojNTUyMjIyO30jZ2VNZXJtYWlkT3V0cHV0LTE3NTMxMTA1NjU3MDMgLmVkZ2UtdGhpY2tuZXNzLW5vcm1hbHtzdHJva2Utd2lkdGg6MXB4O30jZ2VNZXJtYWlkT3V0cHV0LTE3NTMxMTA1NjU3MDMgLmVkZ2UtdGhpY2tuZXNzLXRoaWNre3N0cm9rZS13aWR0aDozLjVweDt9I2dlTWVybWFpZE91dHB1dC0xNzUzMTEwNTY1NzAzIC5lZGdlLXBhdHRlcm4tc29saWR7c3Ryb2tlLWRhc2hhcnJheTowO30jZ2VNZXJtYWlkT3V0cHV0LTE3NTMxMTA1NjU3MDMgLmVkZ2UtdGhpY2tuZXNzLWludmlzaWJsZXtzdHJva2Utd2lkdGg6MDtmaWxsOm5vbmU7fSNnZU1lcm1haWRPdXRwdXQtMTc1MzExMDU2NTcwMyAuZWRnZS1wYXR0ZXJuLWRhc2hlZHtzdHJva2UtZGFzaGFycmF5OjM7fSNnZU1lcm1haWRPdXRwdXQtMTc1MzExMDU2NTcwMyAuZWRnZS1wYXR0ZXJuLWRvdHRlZHtzdHJva2UtZGFzaGFycmF5OjI7fSNnZU1lcm1haWRPdXRwdXQtMTc1MzExMDU2NTcwMyAubWFya2Vye2ZpbGw6IzY2NjtzdHJva2U6IzY2Njt9I2dlTWVybWFpZE91dHB1dC0xNzUzMTEwNTY1NzAzIC5tYXJrZXIuY3Jvc3N7c3Ryb2tlOiM2NjY7fSNnZU1lcm1haWRPdXRwdXQtMTc1MzExMDU2NTcwMyBzdmd7Zm9udC1mYW1pbHk6InRyZWJ1Y2hldCBtcyIsdmVyZGFuYSxhcmlhbCxzYW5zLXNlcmlmO2ZvbnQtc2l6ZToxNnB4O30jZ2VNZXJtYWlkT3V0cHV0LTE3NTMxMTA1NjU3MDMgcHttYXJnaW46MDt9I2dlTWVybWFpZE91dHB1dC0xNzUzMTEwNTY1NzAzIGcuY2xhc3NHcm91cCB0ZXh0e2ZpbGw6Izk5OTtzdHJva2U6bm9uZTtmb250LWZhbWlseToidHJlYnVjaGV0IG1zIix2ZXJkYW5hLGFyaWFsLHNhbnMtc2VyaWY7Zm9udC1zaXplOjEwcHg7fSNnZU1lcm1haWRPdXRwdXQtMTc1MzExMDU2NTcwMyBnLmNsYXNzR3JvdXAgdGV4dCAudGl0bGV7Zm9udC13ZWlnaHQ6Ym9sZGVyO30jZ2VNZXJtYWlkT3V0cHV0LTE3NTMxMTA1NjU3MDMgLm5vZGVMYWJlbCwjZ2VNZXJtYWlkT3V0cHV0LTE3NTMxMTA1NjU3MDMgLmVkZ2VMYWJlbHtjb2xvcjojMTExMTExO30jZ2VNZXJtYWlkT3V0cHV0LTE3NTMxMTA1NjU3MDMgLmVkZ2VMYWJlbCAubGFiZWwgcmVjdHtmaWxsOiNlZWU7fSNnZU1lcm1haWRPdXRwdXQtMTc1MzExMDU2NTcwMyAubGFiZWwgdGV4dHtmaWxsOiMxMTExMTE7fSNnZU1lcm1haWRPdXRwdXQtMTc1MzExMDU2NTcwMyAubGFiZWxCa2d7YmFja2dyb3VuZDojZWVlO30jZ2VNZXJtYWlkT3V0cHV0LTE3NTMxMTA1NjU3MDMgLmVkZ2VMYWJlbCAubGFiZWwgc3BhbntiYWNrZ3JvdW5kOiNlZWU7fSNnZU1lcm1haWRPdXRwdXQtMTc1MzExMDU2NTcwMyAuY2xhc3NUaXRsZXtmb250LXdlaWdodDpib2xkZXI7fSNnZU1lcm1haWRPdXRwdXQtMTc1MzExMDU2NTcwMyAubm9kZSByZWN0LCNnZU1lcm1haWRPdXRwdXQtMTc1MzExMDU2NTcwMyAubm9kZSBjaXJjbGUsI2dlTWVybWFpZE91dHB1dC0xNzUzMTEwNTY1NzAzIC5ub2RlIGVsbGlwc2UsI2dlTWVybWFpZE91dHB1dC0xNzUzMTEwNTY1NzAzIC5ub2RlIHBvbHlnb24sI2dlTWVybWFpZE91dHB1dC0xNzUzMTEwNTY1NzAzIC5ub2RlIHBhdGh7ZmlsbDojZWVlO3N0cm9rZTojOTk5O3N0cm9rZS13aWR0aDoxcHg7fSNnZU1lcm1haWRPdXRwdXQtMTc1MzExMDU2NTcwMyAuZGl2aWRlcntzdHJva2U6Izk5OTtzdHJva2Utd2lkdGg6MTt9I2dlTWVybWFpZE91dHB1dC0xNzUzMTEwNTY1NzAzIGcuY2xpY2thYmxle2N1cnNvcjpwb2ludGVyO30jZ2VNZXJtYWlkT3V0cHV0LTE3NTMxMTA1NjU3MDMgZy5jbGFzc0dyb3VwIHJlY3R7ZmlsbDojZWVlO3N0cm9rZTojOTk5O30jZ2VNZXJtYWlkT3V0cHV0LTE3NTMxMTA1NjU3MDMgZy5jbGFzc0dyb3VwIGxpbmV7c3Ryb2tlOiM5OTk7c3Ryb2tlLXdpZHRoOjE7fSNnZU1lcm1haWRPdXRwdXQtMTc1MzExMDU2NTcwMyAuY2xhc3NMYWJlbCAuYm94e3N0cm9rZTpub25lO3N0cm9rZS13aWR0aDowO2ZpbGw6I2VlZTtvcGFjaXR5OjAuNTt9I2dlTWVybWFpZE91dHB1dC0xNzUzMTEwNTY1NzAzIC5jbGFzc0xhYmVsIC5sYWJlbHtmaWxsOiM5OTk7Zm9udC1zaXplOjEwcHg7fSNnZU1lcm1haWRPdXRwdXQtMTc1MzExMDU2NTcwMyAucmVsYXRpb257c3Ryb2tlOiM2NjY7c3Ryb2tlLXdpZHRoOjE7ZmlsbDpub25lO30jZ2VNZXJtYWlkT3V0cHV0LTE3NTMxMTA1NjU3MDMgLmRhc2hlZC1saW5le3N0cm9rZS1kYXNoYXJyYXk6Mzt9I2dlTWVybWFpZE91dHB1dC0xNzUzMTEwNTY1NzAzIC5kb3R0ZWQtbGluZXtzdHJva2UtZGFzaGFycmF5OjEgMjt9I2dlTWVybWFpZE91dHB1dC0xNzUzMTEwNTY1NzAzICNjb21wb3NpdGlvblN0YXJ0LCNnZU1lcm1haWRPdXRwdXQtMTc1MzExMDU2NTcwMyAuY29tcG9zaXRpb257ZmlsbDojNjY2IWltcG9ydGFudDtzdHJva2U6IzY2NiFpbXBvcnRhbnQ7c3Ryb2tlLXdpZHRoOjE7fSNnZU1lcm1haWRPdXRwdXQtMTc1MzExMDU2NTcwMyAjY29tcG9zaXRpb25FbmQsI2dlTWVybWFpZE91dHB1dC0xNzUzMTEwNTY1NzAzIC5jb21wb3NpdGlvbntmaWxsOiM2NjYhaW1wb3J0YW50O3N0cm9rZTojNjY2IWltcG9ydGFudDtzdHJva2Utd2lkdGg6MTt9I2dlTWVybWFpZE91dHB1dC0xNzUzMTEwNTY1NzAzICNkZXBlbmRlbmN5U3RhcnQsI2dlTWVybWFpZE91dHB1dC0xNzUzMTEwNTY1NzAzIC5kZXBlbmRlbmN5e2ZpbGw6IzY2NiFpbXBvcnRhbnQ7c3Ryb2tlOiM2NjYhaW1wb3J0YW50O3N0cm9rZS13aWR0aDoxO30jZ2VNZXJtYWlkT3V0cHV0LTE3NTMxMTA1NjU3MDMgI2RlcGVuZGVuY3lTdGFydCwjZ2VNZXJtYWlkT3V0cHV0LTE3NTMxMTA1NjU3MDMgLmRlcGVuZGVuY3l7ZmlsbDojNjY2IWltcG9ydGFudDtzdHJva2U6IzY2NiFpbXBvcnRhbnQ7c3Ryb2tlLXdpZHRoOjE7fSNnZU1lcm1haWRPdXRwdXQtMTc1MzExMDU2NTcwMyAjZXh0ZW5zaW9uU3RhcnQsI2dlTWVybWFpZE91dHB1dC0xNzUzMTEwNTY1NzAzIC5leHRlbnNpb257ZmlsbDp0cmFuc3BhcmVudCFpbXBvcnRhbnQ7c3Ryb2tlOiM2NjYhaW1wb3J0YW50O3N0cm9rZS13aWR0aDoxO30jZ2VNZXJtYWlkT3V0cHV0LTE3NTMxMTA1NjU3MDMgI2V4dGVuc2lvbkVuZCwjZ2VNZXJtYWlkT3V0cHV0LTE3NTMxMTA1NjU3MDMgLmV4dGVuc2lvbntmaWxsOnRyYW5zcGFyZW50IWltcG9ydGFudDtzdHJva2U6IzY2NiFpbXBvcnRhbnQ7c3Ryb2tlLXdpZHRoOjE7fSNnZU1lcm1haWRPdXRwdXQtMTc1MzExMDU2NTcwMyAjYWdncmVnYXRpb25TdGFydCwjZ2VNZXJtYWlkT3V0cHV0LTE3NTMxMTA1NjU3MDMgLmFnZ3JlZ2F0aW9ue2ZpbGw6dHJhbnNwYXJlbnQhaW1wb3J0YW50O3N0cm9rZTojNjY2IWltcG9ydGFudDtzdHJva2Utd2lkdGg6MTt9I2dlTWVybWFpZE91dHB1dC0xNzUzMTEwNTY1NzAzICNhZ2dyZWdhdGlvbkVuZCwjZ2VNZXJtYWlkT3V0cHV0LTE3NTMxMTA1NjU3MDMgLmFnZ3JlZ2F0aW9ue2ZpbGw6dHJhbnNwYXJlbnQhaW1wb3J0YW50O3N0cm9rZTojNjY2IWltcG9ydGFudDtzdHJva2Utd2lkdGg6MTt9I2dlTWVybWFpZE91dHB1dC0xNzUzMTEwNTY1NzAzICNsb2xsaXBvcFN0YXJ0LCNnZU1lcm1haWRPdXRwdXQtMTc1MzExMDU2NTcwMyAubG9sbGlwb3B7ZmlsbDojZWVlIWltcG9ydGFudDtzdHJva2U6IzY2NiFpbXBvcnRhbnQ7c3Ryb2tlLXdpZHRoOjE7fSNnZU1lcm1haWRPdXRwdXQtMTc1MzExMDU2NTcwMyAjbG9sbGlwb3BFbmQsI2dlTWVybWFpZE91dHB1dC0xNzUzMTEwNTY1NzAzIC5sb2xsaXBvcHtmaWxsOiNlZWUhaW1wb3J0YW50O3N0cm9rZTojNjY2IWltcG9ydGFudDtzdHJva2Utd2lkdGg6MTt9I2dlTWVybWFpZE91dHB1dC0xNzUzMTEwNTY1NzAzIC5lZGdlVGVybWluYWxze2ZvbnQtc2l6ZToxMXB4O2xpbmUtaGVpZ2h0OmluaXRpYWw7fSNnZU1lcm1haWRPdXRwdXQtMTc1MzExMDU2NTcwMyAuY2xhc3NUaXRsZVRleHR7dGV4dC1hbmNob3I6bWlkZGxlO2ZvbnQtc2l6ZToxOHB4O2ZpbGw6IzAwMDAwMDt9I2dlTWVybWFpZE91dHB1dC0xNzUzMTEwNTY1NzAzIDpyb290ey0tbWVybWFpZC1mb250LWZhbWlseToidHJlYnVjaGV0IG1zIix2ZXJkYW5hLGFyaWFsLHNhbnMtc2VyaWY7fTwvc3R5bGU+PGc+PGRlZnM+PG1hcmtlciBvcmllbnQ9ImF1dG8iIG1hcmtlckhlaWdodD0iMjQwIiBtYXJrZXJXaWR0aD0iMTkwIiByZWZZPSI3IiByZWZYPSIxOCIgY2xhc3M9Im1hcmtlciBhZ2dyZWdhdGlvbiBjbGFzcyIgaWQ9ImdlTWVybWFpZE91dHB1dC0xNzUzMTEwNTY1NzAzX2NsYXNzLWFnZ3JlZ2F0aW9uU3RhcnQiPjxwYXRoIGQ9Ik0gMTgsNyBMOSwxMyBMMSw3IEw5LDEgWiI+PC9wYXRoPjwvbWFya2VyPjwvZGVmcz48ZGVmcz48bWFya2VyIG9yaWVudD0iYXV0byIgbWFya2VySGVpZ2h0PSIyOCIgbWFya2VyV2lkdGg9IjIwIiByZWZZPSI3IiByZWZYPSIxIiBjbGFzcz0ibWFya2VyIGFnZ3JlZ2F0aW9uIGNsYXNzIiBpZD0iZ2VNZXJtYWlkT3V0cHV0LTE3NTMxMTA1NjU3MDNfY2xhc3MtYWdncmVnYXRpb25FbmQiPjxwYXRoIGQ9Ik0gMTgsNyBMOSwxMyBMMSw3IEw5LDEgWiI+PC9wYXRoPjwvbWFya2VyPjwvZGVmcz48ZGVmcz48bWFya2VyIG9yaWVudD0iYXV0byIgbWFya2VySGVpZ2h0PSIyNDAiIG1hcmtlcldpZHRoPSIxOTAiIHJlZlk9IjciIHJlZlg9IjE4IiBjbGFzcz0ibWFya2VyIGV4dGVuc2lvbiBjbGFzcyIgaWQ9ImdlTWVybWFpZE91dHB1dC0xNzUzMTEwNTY1NzAzX2NsYXNzLWV4dGVuc2lvblN0YXJ0Ij48cGF0aCBkPSJNIDEsNyBMMTgsMTMgViAxIFoiPjwvcGF0aD48L21hcmtlcj48L2RlZnM+PGRlZnM+PG1hcmtlciBvcmllbnQ9ImF1dG8iIG1hcmtlckhlaWdodD0iMjgiIG1hcmtlcldpZHRoPSIyMCIgcmVmWT0iNyIgcmVmWD0iMSIgY2xhc3M9Im1hcmtlciBleHRlbnNpb24gY2xhc3MiIGlkPSJnZU1lcm1haWRPdXRwdXQtMTc1MzExMDU2NTcwM19jbGFzcy1leHRlbnNpb25FbmQiPjxwYXRoIGQ9Ik0gMSwxIFYgMTMgTDE4LDcgWiI+PC9wYXRoPjwvbWFya2VyPjwvZGVmcz48ZGVmcz48bWFya2VyIG9yaWVudD0iYXV0byIgbWFya2VySGVpZ2h0PSIyNDAiIG1hcmtlcldpZHRoPSIxOTAiIHJlZlk9IjciIHJlZlg9IjE4IiBjbGFzcz0ibWFya2VyIGNvbXBvc2l0aW9uIGNsYXNzIiBpZD0iZ2VNZXJtYWlkT3V0cHV0LTE3NTMxMTA1NjU3MDNfY2xhc3MtY29tcG9zaXRpb25TdGFydCI+PHBhdGggZD0iTSAxOCw3IEw5LDEzIEwxLDcgTDksMSBaIj48L3BhdGg+PC9tYXJrZXI+PC9kZWZzPjxkZWZzPjxtYXJrZXIgb3JpZW50PSJhdXRvIiBtYXJrZXJIZWlnaHQ9IjI4IiBtYXJrZXJXaWR0aD0iMjAiIHJlZlk9IjciIHJlZlg9IjEiIGNsYXNzPSJtYXJrZXIgY29tcG9zaXRpb24gY2xhc3MiIGlkPSJnZU1lcm1haWRPdXRwdXQtMTc1MzExMDU2NTcwM19jbGFzcy1jb21wb3NpdGlvbkVuZCI+PHBhdGggZD0iTSAxOCw3IEw5LDEzIEwxLDcgTDksMSBaIj48L3BhdGg+PC9tYXJrZXI+PC9kZWZzPjxkZWZzPjxtYXJrZXIgb3JpZW50PSJhdXRvIiBtYXJrZXJIZWlnaHQ9IjI0MCIgbWFya2VyV2lkdGg9IjE5MCIgcmVmWT0iNyIgcmVmWD0iNiIgY2xhc3M9Im1hcmtlciBkZXBlbmRlbmN5IGNsYXNzIiBpZD0iZ2VNZXJtYWlkT3V0cHV0LTE3NTMxMTA1NjU3MDNfY2xhc3MtZGVwZW5kZW5jeVN0YXJ0Ij48cGF0aCBkPSJNIDUsNyBMOSwxMyBMMSw3IEw5LDEgWiI+PC9wYXRoPjwvbWFya2VyPjwvZGVmcz48ZGVmcz48bWFya2VyIG9yaWVudD0iYXV0byIgbWFya2VySGVpZ2h0PSIyOCIgbWFya2VyV2lkdGg9IjIwIiByZWZZPSI3IiByZWZYPSIxMyIgY2xhc3M9Im1hcmtlciBkZXBlbmRlbmN5IGNsYXNzIiBpZD0iZ2VNZXJtYWlkT3V0cHV0LTE3NTMxMTA1NjU3MDNfY2xhc3MtZGVwZW5kZW5jeUVuZCI+PHBhdGggZD0iTSAxOCw3IEw5LDEzIEwxNCw3IEw5LDEgWiI+PC9wYXRoPjwvbWFya2VyPjwvZGVmcz48ZGVmcz48bWFya2VyIG9yaWVudD0iYXV0byIgbWFya2VySGVpZ2h0PSIyNDAiIG1hcmtlcldpZHRoPSIxOTAiIHJlZlk9IjciIHJlZlg9IjEzIiBjbGFzcz0ibWFya2VyIGxvbGxpcG9wIGNsYXNzIiBpZD0iZ2VNZXJtYWlkT3V0cHV0LTE3NTMxMTA1NjU3MDNfY2xhc3MtbG9sbGlwb3BTdGFydCI+PGNpcmNsZSByPSI2IiBjeT0iNyIgY3g9IjciIGZpbGw9InRyYW5zcGFyZW50IiBzdHJva2U9ImJsYWNrIj48L2NpcmNsZT48L21hcmtlcj48L2RlZnM+PGRlZnM+PG1hcmtlciBvcmllbnQ9ImF1dG8iIG1hcmtlckhlaWdodD0iMjQwIiBtYXJrZXJXaWR0aD0iMTkwIiByZWZZPSI3IiByZWZYPSIxIiBjbGFzcz0ibWFya2VyIGxvbGxpcG9wIGNsYXNzIiBpZD0iZ2VNZXJtYWlkT3V0cHV0LTE3NTMxMTA1NjU3MDNfY2xhc3MtbG9sbGlwb3BFbmQiPjxjaXJjbGUgcj0iNiIgY3k9IjciIGN4PSI3IiBmaWxsPSJ0cmFuc3BhcmVudCIgc3Ryb2tlPSJibGFjayI+PC9jaXJjbGU+PC9tYXJrZXI+PC9kZWZzPjxnIGNsYXNzPSJyb290Ij48ZyBjbGFzcz0iY2x1c3RlcnMiPjwvZz48ZyBjbGFzcz0iZWRnZVBhdGhzIj48cGF0aCBtYXJrZXItc3RhcnQ9InVybCgjZ2VNZXJtYWlkT3V0cHV0LTE3NTMxMTA1NjU3MDNfY2xhc3MtZXh0ZW5zaW9uU3RhcnQpIiBzdHlsZT0iOyIgY2xhc3M9ImVkZ2UtdGhpY2tuZXNzLW5vcm1hbCBlZGdlLXBhdHRlcm4tZGFzaGVkIHJlbGF0aW9uIiBpZD0iaWRfQ29sb3JfUmVkXzEiIGQ9Ik0yMDcuNzUzLDU3OC44ODdMMTg5LjE0Miw1ODcuOTA2QzE3MC41Myw1OTYuOTI0LDEzMy4zMDcsNjE0Ljk2MiwxMTQuNjk2LDYzMC4wMTRDOTYuMDg0LDY0NS4wNjcsOTYuMDg0LDY1Ny4xMzMsOTYuMDg0LDY2My4xNjdMOTYuMDg0LDY2OS4yIj48L3BhdGg+PHBhdGggbWFya2VyLXN0YXJ0PSJ1cmwoI2dlTWVybWFpZE91dHB1dC0xNzUzMTEwNTY1NzAzX2NsYXNzLWV4dGVuc2lvblN0YXJ0KSIgc3R5bGU9IjsiIGNsYXNzPSJlZGdlLXRoaWNrbmVzcy1ub3JtYWwgZWRnZS1wYXR0ZXJuLWRhc2hlZCByZWxhdGlvbiIgaWQ9ImlkX0NvbG9yX0JsdWVfMiIgZD0iTTMyMy43NjQsNjE0Ljc5N0wzMjMuNzA1LDYxNy44MzFDMzIzLjY0Nyw2MjAuODY0LDMyMy41Myw2MjYuOTMyLDMyMy40NzEsNjM1Ljk5OUMzMjMuNDEzLDY0NS4wNjcsMzIzLjQxMyw2NTcuMTMzLDMyMy40MTMsNjYzLjE2N0wzMjMuNDEzLDY2OS4yIj48L3BhdGg+PHBhdGggbWFya2VyLXN0YXJ0PSJ1cmwoI2dlTWVybWFpZE91dHB1dC0xNzUzMTEwNTY1NzAzX2NsYXNzLWV4dGVuc2lvblN0YXJ0KSIgc3R5bGU9IjsiIGNsYXNzPSJlZGdlLXRoaWNrbmVzcy1ub3JtYWwgZWRnZS1wYXR0ZXJuLWRhc2hlZCByZWxhdGlvbiIgaWQ9ImlkX0NvbG9yX0dyZWVuXzMiIGQ9Ik00NDMuMzYyLDU3OC44ODdMNDYxLjk3NCw1ODcuOTA2QzQ4MC41ODUsNTk2LjkyNCw1MTcuODA4LDYxNC45NjIsNTM2LjQyLDYzMC4wMTRDNTU1LjAzMSw2NDUuMDY3LDU1NS4wMzEsNjU3LjEzMyw1NTUuMDMxLDY2My4xNjdMNTU1LjAzMSw2NjkuMiI+PC9wYXRoPjxwYXRoIG1hcmtlci1zdGFydD0idXJsKCNnZU1lcm1haWRPdXRwdXQtMTc1MzExMDU2NTcwM19jbGFzcy1leHRlbnNpb25TdGFydCkiIHN0eWxlPSI7IiBjbGFzcz0iZWRnZS10aGlja25lc3Mtbm9ybWFsIGVkZ2UtcGF0dGVybi1kYXNoZWQgcmVsYXRpb24iIGlkPSJpZF9Db2xvcl9ZZWxsb3dfNCIgZD0iTTQ0NC42Nyw1NTAuMjg0TDUwMi4zMiw1NjQuMDdDNTU5Ljk3LDU3Ny44NTYsNjc1LjI2OSw2MDUuNDI4LDczMi45MTksNjI1LjI0N0M3OTAuNTY5LDY0NS4wNjcsNzkwLjU2OSw2NTcuMTMzLDc5MC41NjksNjYzLjE2N0w3OTAuNTY5LDY2OS4yIj48L3BhdGg+PHBhdGggbWFya2VyLXN0YXJ0PSJ1cmwoI2dlTWVybWFpZE91dHB1dC0xNzUzMTEwNTY1NzAzX2NsYXNzLWV4dGVuc2lvblN0YXJ0KSIgc3R5bGU9IjsiIGNsYXNzPSJlZGdlLXRoaWNrbmVzcy1ub3JtYWwgZWRnZS1wYXR0ZXJuLXNvbGlkIHJlbGF0aW9uIiBpZD0iaWRfU2hhcGVfQ2lyY2xlXzUiIGQ9Ik02OTQuOTQ5LDM0Ni42NzNMNjc0LjE2NCwzNTcuMzI3QzY1My4zNzksMzY3Ljk4Miw2MTEuODA5LDM4OS4yOTEsNTkxLjAyNCw0MDUuOTc5QzU3MC4yMzksNDIyLjY2Nyw1NzAuMjM5LDQzNC43MzMsNTcwLjIzOSw0NDAuNzY3TDU3MC4yMzksNDQ2LjgiPjwvcGF0aD48cGF0aCBtYXJrZXItc3RhcnQ9InVybCgjZ2VNZXJtYWlkT3V0cHV0LTE3NTMxMTA1NjU3MDNfY2xhc3MtZXh0ZW5zaW9uU3RhcnQpIiBzdHlsZT0iOyIgY2xhc3M9ImVkZ2UtdGhpY2tuZXNzLW5vcm1hbCBlZGdlLXBhdHRlcm4tc29saWQgcmVsYXRpb24iIGlkPSJpZF9TaGFwZV9TcXVhcmVfNiIgZD0iTTgxMC44LDM5Mi4zNjhMODEwLjk4MSwzOTUuNDA3QzgxMS4xNjIsMzk4LjQ0NSw4MTEuNTI0LDQwNC41MjMsODExLjcwNSw0MTMuNTk1QzgxMS44ODYsNDIyLjY2Nyw4MTEuODg2LDQzNC43MzMsODExLjg4Niw0NDAuNzY3TDgxMS44ODYsNDQ2LjgiPjwvcGF0aD48cGF0aCBtYXJrZXItc3RhcnQ9InVybCgjZ2VNZXJtYWlkT3V0cHV0LTE3NTMxMTA1NjU3MDNfY2xhc3MtZXh0ZW5zaW9uU3RhcnQpIiBzdHlsZT0iOyIgY2xhc3M9ImVkZ2UtdGhpY2tuZXNzLW5vcm1hbCBlZGdlLXBhdHRlcm4tc29saWQgcmVsYXRpb24iIGlkPSJpZF9TaGFwZV9SZWN0YW5nbGVfNyIgZD0iTTkxNC45MzYsMzM5LjM2TDk0MS42NjIsMzUxLjIzNEM5NjguMzg5LDM2My4xMDcsMTAyMS44NDIsMzg2Ljg1MywxMDQ4LjU2OSw0MDQuNzZDMTA3NS4yOTUsNDIyLjY2NywxMDc1LjI5NSw0MzQuNzMzLDEwNzUuMjk1LDQ0MC43NjdMMTA3NS4yOTUsNDQ2LjgiPjwvcGF0aD48cGF0aCBtYXJrZXItZW5kPSJ1cmwoI2dlTWVybWFpZE91dHB1dC0xNzUzMTEwNTY1NzAzX2NsYXNzLWRlcGVuZGVuY3lFbmQpIiBzdHlsZT0iOyIgY2xhc3M9ImVkZ2UtdGhpY2tuZXNzLW5vcm1hbCBlZGdlLXBhdHRlcm4tc29saWQgcmVsYXRpb24iIGlkPSJpZF9TaGFwZV9Db2xvcl84IiBkPSJNNzEwLjk2NywzMTMuOTJMNjQ2LjczMiwzMzAuMDMzQzU4Mi40OTcsMzQ2LjE0Niw0NTQuMDI4LDM3OC4zNzMsMzg5Ljc5MywzOTkuNTJDMzI1LjU1OCw0MjAuNjY3LDMyNS41NTgsNDMwLjczMywzMjUuNTU4LDQzNS43NjdMMzI1LjU1OCw0NDAuOCI+PC9wYXRoPjxwYXRoIG1hcmtlci1lbmQ9InVybCgjZ2VNZXJtYWlkT3V0cHV0LTE3NTMxMTA1NjU3MDNfY2xhc3MtZGVwZW5kZW5jeUVuZCkiIHN0eWxlPSI7IiBjbGFzcz0iZWRnZS10aGlja25lc3Mtbm9ybWFsIGVkZ2UtcGF0dGVybi1zb2xpZCByZWxhdGlvbiIgaWQ9ImlkX0JyaWRnZURQX1NoYXBlXzkiIGQ9Ik04MDQuNzI3LDEzNEw4MDQuNzI3LDE0MC4wMzNDODA0LjcyNywxNDYuMDY3LDgwNC43MjcsMTU4LjEzMyw4MDQuNzI3LDE2OS4yQzgwNC43MjcsMTgwLjI2Nyw4MDQuNzI3LDE5MC4zMzMsODA0LjcyNywxOTUuMzY3TDgwNC43MjcsMjAwLjQiPjwvcGF0aD48L2c+PGcgY2xhc3M9ImVkZ2VMYWJlbHMiPjxnIHRyYW5zZm9ybT0idHJhbnNsYXRlKDk2LjA4NDM4MTEwMzUxNTYyLCA2MzIuOTk5OTk5MDQ2MzI1NykiIGNsYXNzPSJlZGdlTGFiZWwiPjxnIHRyYW5zZm9ybT0idHJhbnNsYXRlKC00My44ODc1MDA3NjI5Mzk0NSwgLTExLjE5OTk5OTgwOTI2NTEzNykiIGNsYXNzPSJsYWJlbCI+PGc+PHJlY3QgaGVpZ2h0PSIyMi4zOTk5OTk2MTg1MzAyNzMiIHdpZHRoPSI4Ny43NzUwMDE1MjU4Nzg5IiB5PSItMS4xOTk5OTk5ODgwNzkwNzEiIHg9Ii0yIiBzdHlsZT0iO2Rpc3BsYXk6IGlubGluZS1ibG9jayIgY2xhc3M9ImJhY2tncm91bmQiPjwvcmVjdD48dGV4dCBzdHlsZT0iO2Rpc3BsYXk6IGlubGluZS1ibG9jayIgeT0iLTEwLjEiPjx0c3BhbiBkeT0iMS4xZW0iIHk9Ii0wLjFlbSIgeD0iMCIgY2xhc3M9InRleHQtb3V0ZXItdHNwYW4iPjx0c3BhbiBmb250LXdlaWdodD0ibm9ybWFsIiBjbGFzcz0idGV4dC1pbm5lci10c3BhbiIgZm9udC1zdHlsZT0ibm9ybWFsIj5pbXBsZW1lbnRzPC90c3Bhbj48L3RzcGFuPjwvdGV4dD48L2c+PC9nPjwvZz48ZyB0cmFuc2Zvcm09InRyYW5zbGF0ZSgzMjMuNDEyNTEzNzMyOTEwMTYsIDYzMi45OTk5OTkwNDYzMjU3KSIgY2xhc3M9ImVkZ2VMYWJlbCI+PGcgdHJhbnNmb3JtPSJ0cmFuc2xhdGUoLTQzLjg4NzUwMDc2MjkzOTQ1LCAtMTEuMTk5OTk5ODA5MjY1MTM3KSIgY2xhc3M9ImxhYmVsIj48Zz48cmVjdCBoZWlnaHQ9IjIyLjM5OTk5OTYxODUzMDI3MyIgd2lkdGg9Ijg3Ljc3NTAwMTUyNTg3ODkiIHk9Ii0xLjE5OTk5OTk4ODA3OTA3MSIgeD0iLTIiIHN0eWxlPSI7ZGlzcGxheTogaW5saW5lLWJsb2NrIiBjbGFzcz0iYmFja2dyb3VuZCI+PC9yZWN0Pjx0ZXh0IHN0eWxlPSI7ZGlzcGxheTogaW5saW5lLWJsb2NrIiB5PSItMTAuMSI+PHRzcGFuIGR5PSIxLjFlbSIgeT0iLTAuMWVtIiB4PSIwIiBjbGFzcz0idGV4dC1vdXRlci10c3BhbiI+PHRzcGFuIGZvbnQtd2VpZ2h0PSJub3JtYWwiIGNsYXNzPSJ0ZXh0LWlubmVyLXRzcGFuIiBmb250LXN0eWxlPSJub3JtYWwiPmltcGxlbWVudHM8L3RzcGFuPjwvdHNwYW4+PC90ZXh0PjwvZz48L2c+PC9nPjxnIHRyYW5zZm9ybT0idHJhbnNsYXRlKDU1NS4wMzEyNjUyNTg3ODkxLCA2MzIuOTk5OTk5MDQ2MzI1NykiIGNsYXNzPSJlZGdlTGFiZWwiPjxnIHRyYW5zZm9ybT0idHJhbnNsYXRlKC00My44ODc1MDA3NjI5Mzk0NSwgLTExLjE5OTk5OTgwOTI2NTEzNykiIGNsYXNzPSJsYWJlbCI+PGc+PHJlY3QgaGVpZ2h0PSIyMi4zOTk5OTk2MTg1MzAyNzMiIHdpZHRoPSI4Ny43NzUwMDE1MjU4Nzg5IiB5PSItMS4xOTk5OTk5ODgwNzkwNzEiIHg9Ii0yIiBzdHlsZT0iO2Rpc3BsYXk6IGlubGluZS1ibG9jayIgY2xhc3M9ImJhY2tncm91bmQiPjwvcmVjdD48dGV4dCBzdHlsZT0iO2Rpc3BsYXk6IGlubGluZS1ibG9jayIgeT0iLTEwLjEiPjx0c3BhbiBkeT0iMS4xZW0iIHk9Ii0wLjFlbSIgeD0iMCIgY2xhc3M9InRleHQtb3V0ZXItdHNwYW4iPjx0c3BhbiBmb250LXdlaWdodD0ibm9ybWFsIiBjbGFzcz0idGV4dC1pbm5lci10c3BhbiIgZm9udC1zdHlsZT0ibm9ybWFsIj5pbXBsZW1lbnRzPC90c3Bhbj48L3RzcGFuPjwvdGV4dD48L2c+PC9nPjwvZz48ZyB0cmFuc2Zvcm09InRyYW5zbGF0ZSg3OTAuNTY4NzcxMzYyMzA0NywgNjMyLjk5OTk5OTA0NjMyNTcpIiBjbGFzcz0iZWRnZUxhYmVsIj48ZyB0cmFuc2Zvcm09InRyYW5zbGF0ZSgtNDMuODg3NTAwNzYyOTM5NDUsIC0xMS4xOTk5OTk4MDkyNjUxMzcpIiBjbGFzcz0ibGFiZWwiPjxnPjxyZWN0IGhlaWdodD0iMjIuMzk5OTk5NjE4NTMwMjczIiB3aWR0aD0iODcuNzc1MDAxNTI1ODc4OSIgeT0iLTEuMTk5OTk5OTg4MDc5MDcxIiB4PSItMiIgc3R5bGU9IjtkaXNwbGF5OiBpbmxpbmUtYmxvY2siIGNsYXNzPSJiYWNrZ3JvdW5kIj48L3JlY3Q+PHRleHQgc3R5bGU9IjtkaXNwbGF5OiBpbmxpbmUtYmxvY2siIHk9Ii0xMC4xIj48dHNwYW4gZHk9IjEuMWVtIiB5PSItMC4xZW0iIHg9IjAiIGNsYXNzPSJ0ZXh0LW91dGVyLXRzcGFuIj48dHNwYW4gZm9udC13ZWlnaHQ9Im5vcm1hbCIgY2xhc3M9InRleHQtaW5uZXItdHNwYW4iIGZvbnQtc3R5bGU9Im5vcm1hbCI+aW1wbGVtZW50czwvdHNwYW4+PC90c3Bhbj48L3RleHQ+PC9nPjwvZz48L2c+PGcgdHJhbnNmb3JtPSJ0cmFuc2xhdGUoNTcwLjIzOTA4MjMzNjQyNTgsIDQxMC41OTk5OTk0Mjc3OTU0KSIgY2xhc3M9ImVkZ2VMYWJlbCI+PGcgdHJhbnNmb3JtPSJ0cmFuc2xhdGUoLTI5Ljk3NTAwMDM4MTQ2OTcyNywgLTExLjE5OTk5OTgwOTI2NTEzNykiIGNsYXNzPSJsYWJlbCI+PGc+PHJlY3QgaGVpZ2h0PSIyMi4zOTk5OTk2MTg1MzAyNzMiIHdpZHRoPSI1OS45NTAwMDA3NjI5Mzk0NSIgeT0iLTEuMTk5OTk5OTg4MDc5MDcxIiB4PSItMiIgc3R5bGU9IjtkaXNwbGF5OiBpbmxpbmUtYmxvY2siIGNsYXNzPSJiYWNrZ3JvdW5kIj48L3JlY3Q+PHRleHQgc3R5bGU9IjtkaXNwbGF5OiBpbmxpbmUtYmxvY2siIHk9Ii0xMC4xIj48dHNwYW4gZHk9IjEuMWVtIiB5PSItMC4xZW0iIHg9IjAiIGNsYXNzPSJ0ZXh0LW91dGVyLXRzcGFuIj48dHNwYW4gZm9udC13ZWlnaHQ9Im5vcm1hbCIgY2xhc3M9InRleHQtaW5uZXItdHNwYW4iIGZvbnQtc3R5bGU9Im5vcm1hbCI+ZXh0ZW5kczwvdHNwYW4+PC90c3Bhbj48L3RleHQ+PC9nPjwvZz48L2c+PGcgdHJhbnNmb3JtPSJ0cmFuc2xhdGUoODExLjg4NTk2MzQzOTk0MTQsIDQxMC41OTk5OTk0Mjc3OTU0KSIgY2xhc3M9ImVkZ2VMYWJlbCI+PGcgdHJhbnNmb3JtPSJ0cmFuc2xhdGUoLTI5Ljk3NTAwMDM4MTQ2OTcyNywgLTExLjE5OTk5OTgwOTI2NTEzNykiIGNsYXNzPSJsYWJlbCI+PGc+PHJlY3QgaGVpZ2h0PSIyMi4zOTk5OTk2MTg1MzAyNzMiIHdpZHRoPSI1OS45NTAwMDA3NjI5Mzk0NSIgeT0iLTEuMTk5OTk5OTg4MDc5MDcxIiB4PSItMiIgc3R5bGU9IjtkaXNwbGF5OiBpbmxpbmUtYmxvY2siIGNsYXNzPSJiYWNrZ3JvdW5kIj48L3JlY3Q+PHRleHQgc3R5bGU9IjtkaXNwbGF5OiBpbmxpbmUtYmxvY2siIHk9Ii0xMC4xIj48dHNwYW4gZHk9IjEuMWVtIiB5PSItMC4xZW0iIHg9IjAiIGNsYXNzPSJ0ZXh0LW91dGVyLXRzcGFuIj48dHNwYW4gZm9udC13ZWlnaHQ9Im5vcm1hbCIgY2xhc3M9InRleHQtaW5uZXItdHNwYW4iIGZvbnQtc3R5bGU9Im5vcm1hbCI+ZXh0ZW5kczwvdHNwYW4+PC90c3Bhbj48L3RleHQ+PC9nPjwvZz48L2c+PGcgdHJhbnNmb3JtPSJ0cmFuc2xhdGUoMTA3NS4yOTUzNDkxMjEwOTM4LCA0MTAuNTk5OTk5NDI3Nzk1NCkiIGNsYXNzPSJlZGdlTGFiZWwiPjxnIHRyYW5zZm9ybT0idHJhbnNsYXRlKC0yOS45NzUwMDAzODE0Njk3MjcsIC0xMS4xOTk5OTk4MDkyNjUxMzcpIiBjbGFzcz0ibGFiZWwiPjxnPjxyZWN0IGhlaWdodD0iMjIuMzk5OTk5NjE4NTMwMjczIiB3aWR0aD0iNTkuOTUwMDAwNzYyOTM5NDUiIHk9Ii0xLjE5OTk5OTk4ODA3OTA3MSIgeD0iLTIiIHN0eWxlPSI7ZGlzcGxheTogaW5saW5lLWJsb2NrIiBjbGFzcz0iYmFja2dyb3VuZCI+PC9yZWN0Pjx0ZXh0IHN0eWxlPSI7ZGlzcGxheTogaW5saW5lLWJsb2NrIiB5PSItMTAuMSI+PHRzcGFuIGR5PSIxLjFlbSIgeT0iLTAuMWVtIiB4PSIwIiBjbGFzcz0idGV4dC1vdXRlci10c3BhbiI+PHRzcGFuIGZvbnQtd2VpZ2h0PSJub3JtYWwiIGNsYXNzPSJ0ZXh0LWlubmVyLXRzcGFuIiBmb250LXN0eWxlPSJub3JtYWwiPmV4dGVuZHM8L3RzcGFuPjwvdHNwYW4+PC90ZXh0PjwvZz48L2c+PC9nPjxnIHRyYW5zZm9ybT0idHJhbnNsYXRlKDMyNS41NTc4MjMxODExNTIzNCwgNDEwLjU5OTk5OTQyNzc5NTQpIiBjbGFzcz0iZWRnZUxhYmVsIj48ZyB0cmFuc2Zvcm09InRyYW5zbGF0ZSgtNzAuMTg3NSwgLTExLjE5OTk5OTgwOTI2NTEzNykiIGNsYXNzPSJsYWJlbCI+PGc+PHJlY3QgaGVpZ2h0PSIyMi4zOTk5OTk2MTg1MzAyNzMiIHdpZHRoPSIxNDAuMzc1IiB5PSItMS4xOTk5OTk5ODgwNzkwNzEiIHg9Ii0yIiBzdHlsZT0iO2Rpc3BsYXk6IGlubGluZS1ibG9jayIgY2xhc3M9ImJhY2tncm91bmQiPjwvcmVjdD48dGV4dCBzdHlsZT0iO2Rpc3BsYXk6IGlubGluZS1ibG9jayIgeT0iLTEwLjEiPjx0c3BhbiBkeT0iMS4xZW0iIHk9Ii0wLjFlbSIgeD0iMCIgY2xhc3M9InRleHQtb3V0ZXItdHNwYW4iPjx0c3BhbiBmb250LXdlaWdodD0ibm9ybWFsIiBjbGFzcz0idGV4dC1pbm5lci10c3BhbiIgZm9udC1zdHlsZT0ibm9ybWFsIj4mYW1wO3F1b3Q7aGFzPC90c3Bhbj48dHNwYW4gZm9udC13ZWlnaHQ9Im5vcm1hbCIgY2xhc3M9InRleHQtaW5uZXItdHNwYW4iIGZvbnQtc3R5bGU9Im5vcm1hbCI+IGEmYW1wO3F1b3Q7PC90c3Bhbj48L3RzcGFuPjwvdGV4dD48L2c+PC9nPjwvZz48ZyB0cmFuc2Zvcm09InRyYW5zbGF0ZSg4MDQuNzI2NTg5MjAyODgwOSwgMTcwLjE5OTk5OTgwOTI2NTE0KSIgY2xhc3M9ImVkZ2VMYWJlbCI+PGcgdHJhbnNmb3JtPSJ0cmFuc2xhdGUoLTE3LjIxMjQ5OTYxODUzMDI3MywgLTExLjE5OTk5OTgwOTI2NTEzNykiIGNsYXNzPSJsYWJlbCI+PGc+PHJlY3QgaGVpZ2h0PSIyMi4zOTk5OTk2MTg1MzAyNzMiIHdpZHRoPSIzNC40MjUwMDExNDQ0MDkxOCIgeT0iLTEuMTk5OTk5OTg4MDc5MDcxIiB4PSItMiIgc3R5bGU9IjtkaXNwbGF5OiBpbmxpbmUtYmxvY2siIGNsYXNzPSJiYWNrZ3JvdW5kIj48L3JlY3Q+PHRleHQgc3R5bGU9IjtkaXNwbGF5OiBpbmxpbmUtYmxvY2siIHk9Ii0xMC4xIj48dHNwYW4gZHk9IjEuMWVtIiB5PSItMC4xZW0iIHg9IjAiIGNsYXNzPSJ0ZXh0LW91dGVyLXRzcGFuIj48dHNwYW4gZm9udC13ZWlnaHQ9Im5vcm1hbCIgY2xhc3M9InRleHQtaW5uZXItdHNwYW4iIGZvbnQtc3R5bGU9Im5vcm1hbCI+dXNlczwvdHNwYW4+PC90c3Bhbj48L3RleHQ+PC9nPjwvZz48L2c+PC9nPjxnIGNsYXNzPSJub2RlcyI+PGcgdHJhbnNmb3JtPSJ0cmFuc2xhdGUoMzI1LjU1NzgyMzE4MTE1MjM0LCA1MjEuNzk5OTk5MjM3MDYwNSkiIGlkPSJjbGFzc0lkLUNvbG9yLTAiIGNsYXNzPSJub2RlIGRlZmF1bHQiPjxnIGNsYXNzPSJiYXNpYyBsYWJlbC1jb250YWluZXIiPjxwYXRoIHN0eWxlPSIiIGZpbGw9IiNlZWUiIHN0cm9rZS13aWR0aD0iMCIgc3Ryb2tlPSJub25lIiBkPSJNLTEwMS42MDYyNTQ1Nzc2MzY3MiAtNzUgTDEwMS42MDYyNTQ1Nzc2MzY3MiAtNzUgTDEwMS42MDYyNTQ1Nzc2MzY3MiA3NSBMLTEwMS42MDYyNTQ1Nzc2MzY3MiA3NSI+PC9wYXRoPjxwYXRoIHN0eWxlPSIiIGZpbGw9Im5vbmUiIHN0cm9rZS13aWR0aD0iMS4zIiBzdHJva2U9IiM5OTkiIGQ9Ik0tMTAxLjYwNjI1NDU3NzYzNjcyIC03NSBDLTQ3LjUyMTk1MTE2NzMyNzc4NSAtNzUsIDYuNTYyMzUyMjQyOTgxMTQ5IC03NSwgMTAxLjYwNjI1NDU3NzYzNjcyIC03NSBNLTEwMS42MDYyNTQ1Nzc2MzY3MiAtNzUgQy0zOC43MDE1NjQ3ODM1MjcwMyAtNzUsIDI0LjIwMzEyNTAxMDU4MjY1MyAtNzUsIDEwMS42MDYyNTQ1Nzc2MzY3MiAtNzUgTTEwMS42MDYyNTQ1Nzc2MzY3MiAtNzUgQzEwMS42MDYyNTQ1Nzc2MzY3MiAtMzcuNjcyNzE1MDc0ODE5NzQsIDEwMS42MDYyNTQ1Nzc2MzY3MiAtMC4zNDU0MzAxNDk2Mzk0ODM0LCAxMDEuNjA2MjU0NTc3NjM2NzIgNzUgTTEwMS42MDYyNTQ1Nzc2MzY3MiAtNzUgQzEwMS42MDYyNTQ1Nzc2MzY3MiAtMjcuOTIzOTQwNDgzMjgzNTYsIDEwMS42MDYyNTQ1Nzc2MzY3MiAxOS4xNTIxMTkwMzM0MzI4ODIsIDEwMS42MDYyNTQ1Nzc2MzY3MiA3NSBNMTAxLjYwNjI1NDU3NzYzNjcyIDc1IEM1My42MTgyMzEyMjA4MDE3NyA3NSwgNS42MzAyMDc4NjM5NjY4MTcgNzUsIC0xMDEuNjA2MjU0NTc3NjM2NzIgNzUgTTEwMS42MDYyNTQ1Nzc2MzY3MiA3NSBDNTQuMjM3NDI0Mjc3MDIyNDUgNzUsIDYuODY4NTkzOTc2NDA4MTc4IDc1LCAtMTAxLjYwNjI1NDU3NzYzNjcyIDc1IE0tMTAxLjYwNjI1NDU3NzYzNjcyIDc1IEMtMTAxLjYwNjI1NDU3NzYzNjcyIDMzLjE0MTc4OTM3ODY5MTUsIC0xMDEuNjA2MjU0NTc3NjM2NzIgLTguNzE2NDIxMjQyNjE3MDAyLCAtMTAxLjYwNjI1NDU3NzYzNjcyIC03NSBNLTEwMS42MDYyNTQ1Nzc2MzY3MiA3NSBDLTEwMS42MDYyNTQ1Nzc2MzY3MiA0Mi40Njg0ODUzOTg4MjUzMSwgLTEwMS42MDYyNTQ1Nzc2MzY3MiA5LjkzNjk3MDc5NzY1MDYxNiwgLTEwMS42MDYyNTQ1Nzc2MzY3MiAtNzUiPjwvcGF0aD48L2c+PGcgdHJhbnNmb3JtPSJ0cmFuc2xhdGUoLTQxLjE3NDk5OTIzNzA2MDU1LCAtNTEpIiBjbGFzcz0iYW5ub3RhdGlvbi1ncm91cCB0ZXh0Ij48ZyB0cmFuc2Zvcm09InRyYW5zbGF0ZSgwLC0xMikiIHN0eWxlPSIiIGNsYXNzPSJsYWJlbCI+PGZvcmVpZ25PYmplY3QgaGVpZ2h0PSIyNCIgd2lkdGg9IjgyLjM0OTk5ODQ3NDEyMTEiPjxkaXYgc3R5bGU9ImRpc3BsYXk6IHRhYmxlLWNlbGw7IHdoaXRlLXNwYWNlOiBub3dyYXA7IGxpbmUtaGVpZ2h0OiAxLjU7IG1heC13aWR0aDogMTI3cHg7IHRleHQtYWxpZ246IGNlbnRlcjsiIHhtbG5zPSJodHRwOi8vd3d3LnczLm9yZy8xOTk5L3hodG1sIj48c3BhbiBzdHlsZT0iIiBjbGFzcz0ibm9kZUxhYmVsIG1hcmtkb3duLW5vZGUtbGFiZWwiPjxwPsKraW50ZXJmYWNlwrs8L3A+PC9zcGFuPjwvZGl2PjwvZm9yZWlnbk9iamVjdD48L2c+PC9nPjxnIHRyYW5zZm9ybT0idHJhbnNsYXRlKC0xOS43MzEyNTA3NjI5Mzk0NTMsIC0yNykiIGNsYXNzPSJsYWJlbC1ncm91cCB0ZXh0Ij48ZyB0cmFuc2Zvcm09InRyYW5zbGF0ZSgwLC0xMikiIHN0eWxlPSJmb250LXdlaWdodDogYm9sZGVyIiBjbGFzcz0ibGFiZWwiPjxmb3JlaWduT2JqZWN0IGhlaWdodD0iMjQiIHdpZHRoPSIzOS40NjI1MDE1MjU4Nzg5MDYiPjxkaXYgc3R5bGU9ImRpc3BsYXk6IHRhYmxlLWNlbGw7IHdoaXRlLXNwYWNlOiBub3dyYXA7IGxpbmUtaGVpZ2h0OiAxLjU7IG1heC13aWR0aDogODlweDsgdGV4dC1hbGlnbjogY2VudGVyOyIgeG1sbnM9Imh0dHA6Ly93d3cudzMub3JnLzE5OTkveGh0bWwiPjxzcGFuIHN0eWxlPSIiIGNsYXNzPSJub2RlTGFiZWwgbWFya2Rvd24tbm9kZS1sYWJlbCI+PHA+Q29sb3I8L3A+PC9zcGFuPjwvZGl2PjwvZm9yZWlnbk9iamVjdD48L2c+PC9nPjxnIHRyYW5zZm9ybT0idHJhbnNsYXRlKC04OS42MDYyNTQ1Nzc2MzY3MiwgMjEpIiBjbGFzcz0ibWVtYmVycy1ncm91cCB0ZXh0Ij48L2c+PGcgdHJhbnNmb3JtPSJ0cmFuc2xhdGUoLTg5LjYwNjI1NDU3NzYzNjcyLCA1MSkiIGNsYXNzPSJtZXRob2RzLWdyb3VwIHRleHQiPjxnIHRyYW5zZm9ybT0idHJhbnNsYXRlKDAsLTEyKSIgc3R5bGU9IiIgY2xhc3M9ImxhYmVsIj48Zm9yZWlnbk9iamVjdCBoZWlnaHQ9IjI0IiB3aWR0aD0iMTM4LjAzNzUwNjEwMzUxNTYyIj48ZGl2IHN0eWxlPSJkaXNwbGF5OiB0YWJsZS1jZWxsOyB3aGl0ZS1zcGFjZTogbm93cmFwOyBsaW5lLWhlaWdodDogMS41OyBtYXgtd2lkdGg6IDE5MnB4OyB0ZXh0LWFsaWduOiBjZW50ZXI7IiB4bWxucz0iaHR0cDovL3d3dy53My5vcmcvMTk5OS94aHRtbCI+PHNwYW4gc3R5bGU9IiIgY2xhc3M9Im5vZGVMYWJlbCBtYXJrZG93bi1ub2RlLWxhYmVsIj48cD4rZ2V0Q29sb3IoKSA6IFN0cmluZzwvcD48L3NwYW4+PC9kaXY+PC9mb3JlaWduT2JqZWN0PjwvZz48L2c+PGcgc3R5bGU9IiIgY2xhc3M9ImRpdmlkZXIiPjxwYXRoIHN0eWxlPSIiIGZpbGw9Im5vbmUiIHN0cm9rZS13aWR0aD0iMS4zIiBzdHJva2U9IiM5OTkiIGQ9Ik0tMTAxLjYwNjI1NDU3NzYzNjcyIC0zIEMtNTguMDk2MjkwMDY4OTgwNTIgLTMsIC0xNC41ODYzMjU1NjAzMjQzMjYgLTMsIDEwMS42MDYyNTQ1Nzc2MzY3MiAtMyBNLTEwMS42MDYyNTQ1Nzc2MzY3MiAtMyBDLTI0LjI2NTMwNjI0MDU4NDM4IC0zLCA1My4wNzU2NDIwOTY0Njc5NiAtMywgMTAxLjYwNjI1NDU3NzYzNjcyIC0zIj48L3BhdGg+PC9nPjxnIHN0eWxlPSIiIGNsYXNzPSJkaXZpZGVyIj48cGF0aCBzdHlsZT0iIiBmaWxsPSJub25lIiBzdHJva2Utd2lkdGg9IjEuMyIgc3Ryb2tlPSIjOTk5IiBkPSJNLTEwMS42MDYyNTQ1Nzc2MzY3MiAyMSBDLTYwLjc1MjI5ODQyODczODEzIDIxLCAtMTkuODk4MzQyMjc5ODM5NTQgMjEsIDEwMS42MDYyNTQ1Nzc2MzY3MiAyMSBNLTEwMS42MDYyNTQ1Nzc2MzY3MiAyMSBDLTU0LjY0MjUzNzM4NTU2Nzc4IDIxLCAtNy42Nzg4MjAxOTM0OTg4MzY1IDIxLCAxMDEuNjA2MjU0NTc3NjM2NzIgMjEiPjwvcGF0aD48L2c+PC9nPjxnIHRyYW5zZm9ybT0idHJhbnNsYXRlKDk2LjA4NDM4MTEwMzUxNTYyLCA3MzIuMTk5OTk4ODU1NTkwOCkiIGlkPSJjbGFzc0lkLVJlZC0xIiBjbGFzcz0ibm9kZSBkZWZhdWx0Ij48ZyBjbGFzcz0iYmFzaWMgbGFiZWwtY29udGFpbmVyIj48cGF0aCBzdHlsZT0iIiBmaWxsPSIjZWVlIiBzdHJva2Utd2lkdGg9IjAiIHN0cm9rZT0ibm9uZSIgZD0iTS04OC4wODQzODExMDM1MTU2MiAtNjMgTDg4LjA4NDM4MTEwMzUxNTYyIC02MyBMODguMDg0MzgxMTAzNTE1NjIgNjMgTC04OC4wODQzODExMDM1MTU2MiA2MyI+PC9wYXRoPjxwYXRoIHN0eWxlPSIiIGZpbGw9Im5vbmUiIHN0cm9rZS13aWR0aD0iMS4zIiBzdHJva2U9IiM5OTkiIGQ9Ik0tODguMDg0MzgxMTAzNTE1NjIgLTYzIEMtMjAuOTIzNDY4NDAxODE5MjUgLTYzLCA0Ni4yMzc0NDQyOTk4NzcxMjYgLTYzLCA4OC4wODQzODExMDM1MTU2MiAtNjMgTS04OC4wODQzODExMDM1MTU2MiAtNjMgQy0zMS43OTg1MjE5MjM2MTIwOTMgLTYzLCAyNC40ODczMzcyNTYyOTE0NCAtNjMsIDg4LjA4NDM4MTEwMzUxNTYyIC02MyBNODguMDg0MzgxMTAzNTE1NjIgLTYzIEM4OC4wODQzODExMDM1MTU2MiAtMzcuNjE1MzI2NTA0MzIwNzM0LCA4OC4wODQzODExMDM1MTU2MiAtMTIuMjMwNjUzMDA4NjQxNDYxLCA4OC4wODQzODExMDM1MTU2MiA2MyBNODguMDg0MzgxMTAzNTE1NjIgLTYzIEM4OC4wODQzODExMDM1MTU2MiAtMjguNjg5OTczMzU3MjM5NTAyLCA4OC4wODQzODExMDM1MTU2MiA1LjYyMDA1MzI4NTUyMDk5NiwgODguMDg0MzgxMTAzNTE1NjIgNjMgTTg4LjA4NDM4MTEwMzUxNTYyIDYzIEMyMC4wNDU4MDQ5MjgwOTAwMiA2MywgLTQ3Ljk5Mjc3MTI0NzMzNTU4IDYzLCAtODguMDg0MzgxMTAzNTE1NjIgNjMgTTg4LjA4NDM4MTEwMzUxNTYyIDYzIEM0Ni4yNjIxNDI1MTIxNDgzMiA2MywgNC40Mzk5MDM5MjA3ODEwMjA1IDYzLCAtODguMDg0MzgxMTAzNTE1NjIgNjMgTS04OC4wODQzODExMDM1MTU2MiA2MyBDLTg4LjA4NDM4MTEwMzUxNTYyIDIwLjcxMDc4NDk5MTY4NTYsIC04OC4wODQzODExMDM1MTU2MiAtMjEuNTc4NDMwMDE2NjI4OCwgLTg4LjA4NDM4MTEwMzUxNTYyIC02MyBNLTg4LjA4NDM4MTEwMzUxNTYyIDYzIEMtODguMDg0MzgxMTAzNTE1NjIgMjcuNjExODgyODg3MDA1NTI4LCAtODguMDg0MzgxMTAzNTE1NjIgLTcuNzc2MjM0MjI1OTg4OTQ0LCAtODguMDg0MzgxMTAzNTE1NjIgLTYzIj48L3BhdGg+PC9nPjxnIHRyYW5zZm9ybT0idHJhbnNsYXRlKDAsIC0zOSkiIGNsYXNzPSJhbm5vdGF0aW9uLWdyb3VwIHRleHQiPjwvZz48ZyB0cmFuc2Zvcm09InRyYW5zbGF0ZSgtMTQuMTMxMjUwMzgxNDY5NzI3LCAtMzkpIiBjbGFzcz0ibGFiZWwtZ3JvdXAgdGV4dCI+PGcgdHJhbnNmb3JtPSJ0cmFuc2xhdGUoMCwtMTIpIiBzdHlsZT0iZm9udC13ZWlnaHQ6IGJvbGRlciIgY2xhc3M9ImxhYmVsIj48Zm9yZWlnbk9iamVjdCBoZWlnaHQ9IjI0IiB3aWR0aD0iMjguMjYyNTAwNzYyOTM5NDUzIj48ZGl2IHN0eWxlPSJkaXNwbGF5OiB0YWJsZS1jZWxsOyB3aGl0ZS1zcGFjZTogbm93cmFwOyBsaW5lLWhlaWdodDogMS41OyBtYXgtd2lkdGg6IDc3cHg7IHRleHQtYWxpZ246IGNlbnRlcjsiIHhtbG5zPSJodHRwOi8vd3d3LnczLm9yZy8xOTk5L3hodG1sIj48c3BhbiBzdHlsZT0iIiBjbGFzcz0ibm9kZUxhYmVsIG1hcmtkb3duLW5vZGUtbGFiZWwiPjxwPlJlZDwvcD48L3NwYW4+PC9kaXY+PC9mb3JlaWduT2JqZWN0PjwvZz48L2c+PGcgdHJhbnNmb3JtPSJ0cmFuc2xhdGUoLTc2LjA4NDM4MTEwMzUxNTYyLCA5KSIgY2xhc3M9Im1lbWJlcnMtZ3JvdXAgdGV4dCI+PC9nPjxnIHRyYW5zZm9ybT0idHJhbnNsYXRlKC03Ni4wODQzODExMDM1MTU2MiwgMzkpIiBjbGFzcz0ibWV0aG9kcy1ncm91cCB0ZXh0Ij48ZyB0cmFuc2Zvcm09InRyYW5zbGF0ZSgwLC0xMikiIHN0eWxlPSIiIGNsYXNzPSJsYWJlbCI+PGZvcmVpZ25PYmplY3QgaGVpZ2h0PSIyNCIgd2lkdGg9IjEzOC4wMzc1MDYxMDM1MTU2MiI+PGRpdiBzdHlsZT0iZGlzcGxheTogdGFibGUtY2VsbDsgd2hpdGUtc3BhY2U6IG5vd3JhcDsgbGluZS1oZWlnaHQ6IDEuNTsgbWF4LXdpZHRoOiAxOTJweDsgdGV4dC1hbGlnbjogY2VudGVyOyIgeG1sbnM9Imh0dHA6Ly93d3cudzMub3JnLzE5OTkveGh0bWwiPjxzcGFuIHN0eWxlPSIiIGNsYXNzPSJub2RlTGFiZWwgbWFya2Rvd24tbm9kZS1sYWJlbCI+PHA+K2dldENvbG9yKCkgOiBTdHJpbmc8L3A+PC9zcGFuPjwvZGl2PjwvZm9yZWlnbk9iamVjdD48L2c+PC9nPjxnIHN0eWxlPSIiIGNsYXNzPSJkaXZpZGVyIj48cGF0aCBzdHlsZT0iIiBmaWxsPSJub25lIiBzdHJva2Utd2lkdGg9IjEuMyIgc3Ryb2tlPSIjOTk5IiBkPSJNLTg4LjA4NDM4MTEwMzUxNTYyIC0xNSBDLTE4LjYxNDIyNjM0ODM4MTYwNyAtMTUsIDUwLjg1NTkyODQwNjc1MjQxIC0xNSwgODguMDg0MzgxMTAzNTE1NjIgLTE1IE0tODguMDg0MzgxMTAzNTE1NjIgLTE1IEMtNDEuMTczMDY5NDc4Mzg5NDcgLTE1LCA1LjczODI0MjE0NjczNjY4MSAtMTUsIDg4LjA4NDM4MTEwMzUxNTYyIC0xNSI+PC9wYXRoPjwvZz48ZyBzdHlsZT0iIiBjbGFzcz0iZGl2aWRlciI+PHBhdGggc3R5bGU9IiIgZmlsbD0ibm9uZSIgc3Ryb2tlLXdpZHRoPSIxLjMiIHN0cm9rZT0iIzk5OSIgZD0iTS04OC4wODQzODExMDM1MTU2MiA5IEMtMzYuNjI3MDEyNDE4NTgwMDIgOSwgMTQuODMwMzU2MjY2MzU1NTggOSwgODguMDg0MzgxMTAzNTE1NjIgOSBNLTg4LjA4NDM4MTEwMzUxNTYyIDkgQy0yNC40MDg4MjM1NDgyMzc1NDIgOSwgMzkuMjY2NzM0MDA3MDQwNTQgOSwgODguMDg0MzgxMTAzNTE1NjIgOSI+PC9wYXRoPjwvZz48L2c+PGcgdHJhbnNmb3JtPSJ0cmFuc2xhdGUoMzIzLjQxMjUxMzczMjkxMDE2LCA3MzIuMTk5OTk4ODU1NTkwOCkiIGlkPSJjbGFzc0lkLUJsdWUtMiIgY2xhc3M9Im5vZGUgZGVmYXVsdCI+PGcgY2xhc3M9ImJhc2ljIGxhYmVsLWNvbnRhaW5lciI+PHBhdGggc3R5bGU9IiIgZmlsbD0iI2VlZSIgc3Ryb2tlLXdpZHRoPSIwIiBzdHJva2U9Im5vbmUiIGQ9Ik0tODkuMjQzNzUxNTI1ODc4OSAtNjMgTDg5LjI0Mzc1MTUyNTg3ODkgLTYzIEw4OS4yNDM3NTE1MjU4Nzg5IDYzIEwtODkuMjQzNzUxNTI1ODc4OSA2MyI+PC9wYXRoPjxwYXRoIHN0eWxlPSIiIGZpbGw9Im5vbmUiIHN0cm9rZS13aWR0aD0iMS4zIiBzdHJva2U9IiM5OTkiIGQ9Ik0tODkuMjQzNzUxNTI1ODc4OSAtNjMgQy01Mi44NTY5MzM2OTI3MTg5NzUgLTYzLCAtMTYuNDcwMTE1ODU5NTU5MDQ0IC02MywgODkuMjQzNzUxNTI1ODc4OSAtNjMgTS04OS4yNDM3NTE1MjU4Nzg5IC02MyBDLTUzLjA3NzkxMDQ1ODY1ODkzIC02MywgLTE2LjkxMjA2OTM5MTQzODk0OCAtNjMsIDg5LjI0Mzc1MTUyNTg3ODkgLTYzIE04OS4yNDM3NTE1MjU4Nzg5IC02MyBDODkuMjQzNzUxNTI1ODc4OSAtMjAuMTA0NDYyNDA2MjkyNjEyLCA4OS4yNDM3NTE1MjU4Nzg5IDIyLjc5MTA3NTE4NzQxNDc3NiwgODkuMjQzNzUxNTI1ODc4OSA2MyBNODkuMjQzNzUxNTI1ODc4OSAtNjMgQzg5LjI0Mzc1MTUyNTg3ODkgLTM2LjgyMjU3MjY4NDA5MjM1LCA4OS4yNDM3NTE1MjU4Nzg5IC0xMC42NDUxNDUzNjgxODQ3LCA4OS4yNDM3NTE1MjU4Nzg5IDYzIE04OS4yNDM3NTE1MjU4Nzg5IDYzIEM0Ny43Mjc2NzA3NDEzNDQwNSA2MywgNi4yMTE1ODk5NTY4MDkxOTIgNjMsIC04OS4yNDM3NTE1MjU4Nzg5IDYzIE04OS4yNDM3NTE1MjU4Nzg5IDYzIEM0Mi44NjI3MTMzODA2OTQ3MSA2MywgLTMuNTE4MzI0NzY0NDg5NDkyIDYzLCAtODkuMjQzNzUxNTI1ODc4OSA2MyBNLTg5LjI0Mzc1MTUyNTg3ODkgNjMgQy04OS4yNDM3NTE1MjU4Nzg5IDE5LjM3NzcxNTY4NTU1OTAwNCwgLTg5LjI0Mzc1MTUyNTg3ODkgLTI0LjI0NDU2ODYyODg4MTk5MywgLTg5LjI0Mzc1MTUyNTg3ODkgLTYzIE0tODkuMjQzNzUxNTI1ODc4OSA2MyBDLTg5LjI0Mzc1MTUyNTg3ODkgMzEuODM5MjAyOTczODIwOTQyLCAtODkuMjQzNzUxNTI1ODc4OSAwLjY3ODQwNTk0NzY0MTg4NDcsIC04OS4yNDM3NTE1MjU4Nzg5IC02MyI+PC9wYXRoPjwvZz48ZyB0cmFuc2Zvcm09InRyYW5zbGF0ZSgwLCAtMzkpIiBjbGFzcz0iYW5ub3RhdGlvbi1ncm91cCB0ZXh0Ij48L2c+PGcgdHJhbnNmb3JtPSJ0cmFuc2xhdGUoLTE2LjQ1MDAwMDc2MjkzOTQ1MywgLTM5KSIgY2xhc3M9ImxhYmVsLWdyb3VwIHRleHQiPjxnIHRyYW5zZm9ybT0idHJhbnNsYXRlKDAsLTEyKSIgc3R5bGU9ImZvbnQtd2VpZ2h0OiBib2xkZXIiIGNsYXNzPSJsYWJlbCI+PGZvcmVpZ25PYmplY3QgaGVpZ2h0PSIyNCIgd2lkdGg9IjMyLjkwMDAwMTUyNTg3ODkwNiI+PGRpdiBzdHlsZT0iZGlzcGxheTogdGFibGUtY2VsbDsgd2hpdGUtc3BhY2U6IG5vd3JhcDsgbGluZS1oZWlnaHQ6IDEuNTsgbWF4LXdpZHRoOiA4MHB4OyB0ZXh0LWFsaWduOiBjZW50ZXI7IiB4bWxucz0iaHR0cDovL3d3dy53My5vcmcvMTk5OS94aHRtbCI+PHNwYW4gc3R5bGU9IiIgY2xhc3M9Im5vZGVMYWJlbCBtYXJrZG93bi1ub2RlLWxhYmVsIj48cD5CbHVlPC9wPjwvc3Bhbj48L2Rpdj48L2ZvcmVpZ25PYmplY3Q+PC9nPjwvZz48ZyB0cmFuc2Zvcm09InRyYW5zbGF0ZSgtNzcuMjQzNzUxNTI1ODc4OSwgOSkiIGNsYXNzPSJtZW1iZXJzLWdyb3VwIHRleHQiPjwvZz48ZyB0cmFuc2Zvcm09InRyYW5zbGF0ZSgtNzcuMjQzNzUxNTI1ODc4OSwgMzkpIiBjbGFzcz0ibWV0aG9kcy1ncm91cCB0ZXh0Ij48ZyB0cmFuc2Zvcm09InRyYW5zbGF0ZSgwLC0xMikiIHN0eWxlPSIiIGNsYXNzPSJsYWJlbCI+PGZvcmVpZ25PYmplY3QgaGVpZ2h0PSIyNCIgd2lkdGg9IjEzOC4wMzc1MDYxMDM1MTU2MiI+PGRpdiBzdHlsZT0iZGlzcGxheTogdGFibGUtY2VsbDsgd2hpdGUtc3BhY2U6IG5vd3JhcDsgbGluZS1oZWlnaHQ6IDEuNTsgbWF4LXdpZHRoOiAxOTJweDsgdGV4dC1hbGlnbjogY2VudGVyOyIgeG1sbnM9Imh0dHA6Ly93d3cudzMub3JnLzE5OTkveGh0bWwiPjxzcGFuIHN0eWxlPSIiIGNsYXNzPSJub2RlTGFiZWwgbWFya2Rvd24tbm9kZS1sYWJlbCI+PHA+K2dldENvbG9yKCkgOiBTdHJpbmc8L3A+PC9zcGFuPjwvZGl2PjwvZm9yZWlnbk9iamVjdD48L2c+PC9nPjxnIHN0eWxlPSIiIGNsYXNzPSJkaXZpZGVyIj48cGF0aCBzdHlsZT0iIiBmaWxsPSJub25lIiBzdHJva2Utd2lkdGg9IjEuMyIgc3Ryb2tlPSIjOTk5IiBkPSJNLTg5LjI0Mzc1MTUyNTg3ODkgLTE1IEMtNTAuODUxODc4ODEyMzM3MzkgLTE1LCAtMTIuNDYwMDA2MDk4Nzk1ODczIC0xNSwgODkuMjQzNzUxNTI1ODc4OSAtMTUgTS04OS4yNDM3NTE1MjU4Nzg5IC0xNSBDLTQyLjUzODkyMDcwNDkzODg3NCAtMTUsIDQuMTY1OTEwMTE2MDAxMTU3IC0xNSwgODkuMjQzNzUxNTI1ODc4OSAtMTUiPjwvcGF0aD48L2c+PGcgc3R5bGU9IiIgY2xhc3M9ImRpdmlkZXIiPjxwYXRoIHN0eWxlPSIiIGZpbGw9Im5vbmUiIHN0cm9rZS13aWR0aD0iMS4zIiBzdHJva2U9IiM5OTkiIGQ9Ik0tODkuMjQzNzUxNTI1ODc4OSA5IEMtNTEuMTY0NzEwODk0MzIyNzggOSwgLTEzLjA4NTY3MDI2Mjc2NjY1NSA5LCA4OS4yNDM3NTE1MjU4Nzg5IDkgTS04OS4yNDM3NTE1MjU4Nzg5IDkgQy00OS4wOTQ5NzY4NTMyOTM1IDksIC04Ljk0NjIwMjE4MDcwODA5OSA5LCA4OS4yNDM3NTE1MjU4Nzg5IDkiPjwvcGF0aD48L2c+PC9nPjxnIHRyYW5zZm9ybT0idHJhbnNsYXRlKDU1NS4wMzEyNjUyNTg3ODkxLCA3MzIuMTk5OTk4ODU1NTkwOCkiIGlkPSJjbGFzc0lkLUdyZWVuLTMiIGNsYXNzPSJub2RlIGRlZmF1bHQiPjxnIGNsYXNzPSJiYXNpYyBsYWJlbC1jb250YWluZXIiPjxwYXRoIHN0eWxlPSIiIGZpbGw9IiNlZWUiIHN0cm9rZS13aWR0aD0iMCIgc3Ryb2tlPSJub25lIiBkPSJNLTkyLjM3NSAtNjMgTDkyLjM3NSAtNjMgTDkyLjM3NSA2MyBMLTkyLjM3NSA2MyI+PC9wYXRoPjxwYXRoIHN0eWxlPSIiIGZpbGw9Im5vbmUiIHN0cm9rZS13aWR0aD0iMS4zIiBzdHJva2U9IiM5OTkiIGQ9Ik0tOTIuMzc1IC02MyBDLTI2Ljk3ODMxMzAxMzI1MzEzIC02MywgMzguNDE4MzczOTczNDkzNzQgLTYzLCA5Mi4zNzUgLTYzIE0tOTIuMzc1IC02MyBDLTI1LjkxOTc1OTc0NzQ2MDU2IC02MywgNDAuNTM1NDgwNTA1MDc4ODggLTYzLCA5Mi4zNzUgLTYzIE05Mi4zNzUgLTYzIEM5Mi4zNzUgLTI4LjE4NTUwMTM1ODgzNTgxNSwgOTIuMzc1IDYuNjI4OTk3MjgyMzI4MzcwNSwgOTIuMzc1IDYzIE05Mi4zNzUgLTYzIEM5Mi4zNzUgLTMyLjEyNzIzNDUzODA3ODA3LCA5Mi4zNzUgLTEuMjU0NDY5MDc2MTU2MTQxMiwgOTIuMzc1IDYzIE05Mi4zNzUgNjMgQzI4Ljc0NDI1NTQzMTA2ODQzIDYzLCAtMzQuODg2NDg5MTM3ODYzMTQgNjMsIC05Mi4zNzUgNjMgTTkyLjM3NSA2MyBDMjEuNDkzMDUzNTc2NjEwMzIyIDYzLCAtNDkuMzg4ODkyODQ2Nzc5MzU2IDYzLCAtOTIuMzc1IDYzIE0tOTIuMzc1IDYzIEMtOTIuMzc1IDI2LjMzNzQyOTgyMzQ4OTQ3MiwgLTkyLjM3NSAtMTAuMzI1MTQwMzUzMDIxMDU1LCAtOTIuMzc1IC02MyBNLTkyLjM3NSA2MyBDLTkyLjM3NSAxNS40Mjc1MTg3NzE5NTg3MzgsIC05Mi4zNzUgLTMyLjE0NDk2MjQ1NjA4MjUyNCwgLTkyLjM3NSAtNjMiPjwvcGF0aD48L2c+PGcgdHJhbnNmb3JtPSJ0cmFuc2xhdGUoMCwgLTM5KSIgY2xhc3M9ImFubm90YXRpb24tZ3JvdXAgdGV4dCI+PC9nPjxnIHRyYW5zZm9ybT0idHJhbnNsYXRlKC0yMi43MTI0OTk2MTg1MzAyNzMsIC0zOSkiIGNsYXNzPSJsYWJlbC1ncm91cCB0ZXh0Ij48ZyB0cmFuc2Zvcm09InRyYW5zbGF0ZSgwLC0xMikiIHN0eWxlPSJmb250LXdlaWdodDogYm9sZGVyIiBjbGFzcz0ibGFiZWwiPjxmb3JlaWduT2JqZWN0IGhlaWdodD0iMjQiIHdpZHRoPSI0NS40MjQ5OTkyMzcwNjA1NSI+PGRpdiBzdHlsZT0iZGlzcGxheTogdGFibGUtY2VsbDsgd2hpdGUtc3BhY2U6IG5vd3JhcDsgbGluZS1oZWlnaHQ6IDEuNTsgbWF4LXdpZHRoOiA5MnB4OyB0ZXh0LWFsaWduOiBjZW50ZXI7IiB4bWxucz0iaHR0cDovL3d3dy53My5vcmcvMTk5OS94aHRtbCI+PHNwYW4gc3R5bGU9IiIgY2xhc3M9Im5vZGVMYWJlbCBtYXJrZG93bi1ub2RlLWxhYmVsIj48cD5HcmVlbjwvcD48L3NwYW4+PC9kaXY+PC9mb3JlaWduT2JqZWN0PjwvZz48L2c+PGcgdHJhbnNmb3JtPSJ0cmFuc2xhdGUoLTgwLjM3NSwgOSkiIGNsYXNzPSJtZW1iZXJzLWdyb3VwIHRleHQiPjwvZz48ZyB0cmFuc2Zvcm09InRyYW5zbGF0ZSgtODAuMzc1LCAzOSkiIGNsYXNzPSJtZXRob2RzLWdyb3VwIHRleHQiPjxnIHRyYW5zZm9ybT0idHJhbnNsYXRlKDAsLTEyKSIgc3R5bGU9IiIgY2xhc3M9ImxhYmVsIj48Zm9yZWlnbk9iamVjdCBoZWlnaHQ9IjI0IiB3aWR0aD0iMTM4LjAzNzUwNjEwMzUxNTYyIj48ZGl2IHN0eWxlPSJkaXNwbGF5OiB0YWJsZS1jZWxsOyB3aGl0ZS1zcGFjZTogbm93cmFwOyBsaW5lLWhlaWdodDogMS41OyBtYXgtd2lkdGg6IDE5MnB4OyB0ZXh0LWFsaWduOiBjZW50ZXI7IiB4bWxucz0iaHR0cDovL3d3dy53My5vcmcvMTk5OS94aHRtbCI+PHNwYW4gc3R5bGU9IiIgY2xhc3M9Im5vZGVMYWJlbCBtYXJrZG93bi1ub2RlLWxhYmVsIj48cD4rZ2V0Q29sb3IoKSA6IFN0cmluZzwvcD48L3NwYW4+PC9kaXY+PC9mb3JlaWduT2JqZWN0PjwvZz48L2c+PGcgc3R5bGU9IiIgY2xhc3M9ImRpdmlkZXIiPjxwYXRoIHN0eWxlPSIiIGZpbGw9Im5vbmUiIHN0cm9rZS13aWR0aD0iMS4zIiBzdHJva2U9IiM5OTkiIGQ9Ik0tOTIuMzc1IC0xNSBDLTM2LjQyODYwMjA3MDg2OTM4IC0xNSwgMTkuNTE3Nzk1ODU4MjYxMjM4IC0xNSwgOTIuMzc1IC0xNSBNLTkyLjM3NSAtMTUgQy0yNS45NzkyMjYyNzk2OTk1NDYgLTE1LCA0MC40MTY1NDc0NDA2MDA5MSAtMTUsIDkyLjM3NSAtMTUiPjwvcGF0aD48L2c+PGcgc3R5bGU9IiIgY2xhc3M9ImRpdmlkZXIiPjxwYXRoIHN0eWxlPSIiIGZpbGw9Im5vbmUiIHN0cm9rZS13aWR0aD0iMS4zIiBzdHJva2U9IiM5OTkiIGQ9Ik0tOTIuMzc1IDkgQy0zNC4xNDY2NzAwMjE1OTU0NCA5LCAyNC4wODE2NTk5NTY4MDkxMiA5LCA5Mi4zNzUgOSBNLTkyLjM3NSA5IEMtMjQuMjk2NjEzMzMyNDY0NDkgOSwgNDMuNzgxNzczMzM1MDcxMDIgOSwgOTIuMzc1IDkiPjwvcGF0aD48L2c+PC9nPjxnIHRyYW5zZm9ybT0idHJhbnNsYXRlKDc5MC41Njg3NzEzNjIzMDQ3LCA3MzIuMTk5OTk4ODU1NTkwOCkiIGlkPSJjbGFzc0lkLVllbGxvdy00IiBjbGFzcz0ibm9kZSBkZWZhdWx0Ij48ZyBjbGFzcz0iYmFzaWMgbGFiZWwtY29udGFpbmVyIj48cGF0aCBzdHlsZT0iIiBmaWxsPSIjZWVlIiBzdHJva2Utd2lkdGg9IjAiIHN0cm9rZT0ibm9uZSIgZD0iTS05My4xNjI1MDYxMDM1MTU2MiAtNjMgTDkzLjE2MjUwNjEwMzUxNTYyIC02MyBMOTMuMTYyNTA2MTAzNTE1NjIgNjMgTC05My4xNjI1MDYxMDM1MTU2MiA2MyI+PC9wYXRoPjxwYXRoIHN0eWxlPSIiIGZpbGw9Im5vbmUiIHN0cm9rZS13aWR0aD0iMS4zIiBzdHJva2U9IiM5OTkiIGQ9Ik0tOTMuMTYyNTA2MTAzNTE1NjIgLTYzIEMtMjUuNDYxOTgzODAzNTYwMDE3IC02MywgNDIuMjM4NTM4NDk2Mzk1NTkgLTYzLCA5My4xNjI1MDYxMDM1MTU2MiAtNjMgTS05My4xNjI1MDYxMDM1MTU2MiAtNjMgQy0zNC4zOTk5OTA1NTc5MzYxOSAtNjMsIDI0LjM2MjUyNDk4NzY0MzI0IC02MywgOTMuMTYyNTA2MTAzNTE1NjIgLTYzIE05My4xNjI1MDYxMDM1MTU2MiAtNjMgQzkzLjE2MjUwNjEwMzUxNTYyIC0yNi4xNjUxNDEyNzAzNTA2OCwgOTMuMTYyNTA2MTAzNTE1NjIgMTAuNjY5NzE3NDU5Mjk4NjM5LCA5My4xNjI1MDYxMDM1MTU2MiA2MyBNOTMuMTYyNTA2MTAzNTE1NjIgLTYzIEM5My4xNjI1MDYxMDM1MTU2MiAtMzAuNTc5NDk0OTA2MDU4MDAyLCA5My4xNjI1MDYxMDM1MTU2MiAxLjg0MTAxMDE4Nzg4Mzk5NTMsIDkzLjE2MjUwNjEwMzUxNTYyIDYzIE05My4xNjI1MDYxMDM1MTU2MiA2MyBDNDAuNDY5MTU0NDQ5MjE0NCA2MywgLTEyLjIyNDE5NzIwNTA4NjgyNCA2MywgLTkzLjE2MjUwNjEwMzUxNTYyIDYzIE05My4xNjI1MDYxMDM1MTU2MiA2MyBDNDAuMDI4ODY3NjYwMDgyMDIgNjMsIC0xMy4xMDQ3NzA3ODMzNTE1ODMgNjMsIC05My4xNjI1MDYxMDM1MTU2MiA2MyBNLTkzLjE2MjUwNjEwMzUxNTYyIDYzIEMtOTMuMTYyNTA2MTAzNTE1NjIgMjguNTU2ODc0MTc2MzI5NDMsIC05My4xNjI1MDYxMDM1MTU2MiAtNS44ODYyNTE2NDczNDExNCwgLTkzLjE2MjUwNjEwMzUxNTYyIC02MyBNLTkzLjE2MjUwNjEwMzUxNTYyIDYzIEMtOTMuMTYyNTA2MTAzNTE1NjIgMTcuOTU3MjcyMjE3MzMxNTE0LCAtOTMuMTYyNTA2MTAzNTE1NjIgLTI3LjA4NTQ1NTU2NTMzNjk3LCAtOTMuMTYyNTA2MTAzNTE1NjIgLTYzIj48L3BhdGg+PC9nPjxnIHRyYW5zZm9ybT0idHJhbnNsYXRlKDAsIC0zOSkiIGNsYXNzPSJhbm5vdGF0aW9uLWdyb3VwIHRleHQiPjwvZz48ZyB0cmFuc2Zvcm09InRyYW5zbGF0ZSgtMjQuMjg3NTAwMzgxNDY5NzI3LCAtMzkpIiBjbGFzcz0ibGFiZWwtZ3JvdXAgdGV4dCI+PGcgdHJhbnNmb3JtPSJ0cmFuc2xhdGUoMCwtMTIpIiBzdHlsZT0iZm9udC13ZWlnaHQ6IGJvbGRlciIgY2xhc3M9ImxhYmVsIj48Zm9yZWlnbk9iamVjdCBoZWlnaHQ9IjI0IiB3aWR0aD0iNDguNTc1MDAwNzYyOTM5NDUiPjxkaXYgc3R5bGU9ImRpc3BsYXk6IHRhYmxlLWNlbGw7IHdoaXRlLXNwYWNlOiBub3dyYXA7IGxpbmUtaGVpZ2h0OiAxLjU7IG1heC13aWR0aDogOTZweDsgdGV4dC1hbGlnbjogY2VudGVyOyIgeG1sbnM9Imh0dHA6Ly93d3cudzMub3JnLzE5OTkveGh0bWwiPjxzcGFuIHN0eWxlPSIiIGNsYXNzPSJub2RlTGFiZWwgbWFya2Rvd24tbm9kZS1sYWJlbCI+PHA+WWVsbG93PC9wPjwvc3Bhbj48L2Rpdj48L2ZvcmVpZ25PYmplY3Q+PC9nPjwvZz48ZyB0cmFuc2Zvcm09InRyYW5zbGF0ZSgtODEuMTYyNTA2MTAzNTE1NjIsIDkpIiBjbGFzcz0ibWVtYmVycy1ncm91cCB0ZXh0Ij48L2c+PGcgdHJhbnNmb3JtPSJ0cmFuc2xhdGUoLTgxLjE2MjUwNjEwMzUxNTYyLCAzOSkiIGNsYXNzPSJtZXRob2RzLWdyb3VwIHRleHQiPjxnIHRyYW5zZm9ybT0idHJhbnNsYXRlKDAsLTEyKSIgc3R5bGU9IiIgY2xhc3M9ImxhYmVsIj48Zm9yZWlnbk9iamVjdCBoZWlnaHQ9IjI0IiB3aWR0aD0iMTM4LjAzNzUwNjEwMzUxNTYyIj48ZGl2IHN0eWxlPSJkaXNwbGF5OiB0YWJsZS1jZWxsOyB3aGl0ZS1zcGFjZTogbm93cmFwOyBsaW5lLWhlaWdodDogMS41OyBtYXgtd2lkdGg6IDE5MnB4OyB0ZXh0LWFsaWduOiBjZW50ZXI7IiB4bWxucz0iaHR0cDovL3d3dy53My5vcmcvMTk5OS94aHRtbCI+PHNwYW4gc3R5bGU9IiIgY2xhc3M9Im5vZGVMYWJlbCBtYXJrZG93bi1ub2RlLWxhYmVsIj48cD4rZ2V0Q29sb3IoKSA6IFN0cmluZzwvcD48L3NwYW4+PC9kaXY+PC9mb3JlaWduT2JqZWN0PjwvZz48L2c+PGcgc3R5bGU9IiIgY2xhc3M9ImRpdmlkZXIiPjxwYXRoIHN0eWxlPSIiIGZpbGw9Im5vbmUiIHN0cm9rZS13aWR0aD0iMS4zIiBzdHJva2U9IiM5OTkiIGQ9Ik0tOTMuMTYyNTA2MTAzNTE1NjIgLTE1IEMtMzUuMzA0ODA0NDEwMTU1NjIgLTE1LCAyMi41NTI4OTcyODMyMDQzODggLTE1LCA5My4xNjI1MDYxMDM1MTU2MiAtMTUgTS05My4xNjI1MDYxMDM1MTU2MiAtMTUgQy0zMi4xMDYxMzY1Mzg1MTIwNiAtMTUsIDI4Ljk1MDIzMzAyNjQ5MTUwMyAtMTUsIDkzLjE2MjUwNjEwMzUxNTYyIC0xNSI+PC9wYXRoPjwvZz48ZyBzdHlsZT0iIiBjbGFzcz0iZGl2aWRlciI+PHBhdGggc3R5bGU9IiIgZmlsbD0ibm9uZSIgc3Ryb2tlLXdpZHRoPSIxLjMiIHN0cm9rZT0iIzk5OSIgZD0iTS05My4xNjI1MDYxMDM1MTU2MiA5IEMtNTQuMTQ1Mjg1MzE1NDQzOTMgOSwgLTE1LjEyODA2NDUyNzM3MjIzMSA5LCA5My4xNjI1MDYxMDM1MTU2MiA5IE0tOTMuMTYyNTA2MTAzNTE1NjIgOSBDLTQyLjEyNjA1NTIwODU1Nzc5IDksIDguOTEwMzk1Njg2NDAwMDUgOSwgOTMuMTYyNTA2MTAzNTE1NjIgOSI+PC9wYXRoPjwvZz48L2c+PGcgdHJhbnNmb3JtPSJ0cmFuc2xhdGUoODA0LjcyNjU4OTIwMjg4MDksIDI5MC4zOTk5OTk2MTg1MzAzKSIgaWQ9ImNsYXNzSWQtU2hhcGUtNSIgY2xhc3M9Im5vZGUgZGVmYXVsdCI+PGcgY2xhc3M9ImJhc2ljIGxhYmVsLWNvbnRhaW5lciI+PHBhdGggc3R5bGU9IiIgZmlsbD0iI2VlZSIgc3Ryb2tlLXdpZHRoPSIwIiBzdHJva2U9Im5vbmUiIGQ9Ik0tOTMuNzU5Mzc2NTI1ODc4OSAtODQgTDkzLjc1OTM3NjUyNTg3ODkgLTg0IEw5My43NTkzNzY1MjU4Nzg5IDg0IEwtOTMuNzU5Mzc2NTI1ODc4OSA4NCI+PC9wYXRoPjxwYXRoIHN0eWxlPSIiIGZpbGw9Im5vbmUiIHN0cm9rZS13aWR0aD0iMS4zIiBzdHJva2U9IiM5OTkiIGQ9Ik0tOTMuNzU5Mzc2NTI1ODc4OSAtODQgQy0zNS40Mjg3ODQ4NTI3OTQ3MzUgLTg0LCAyMi45MDE4MDY4MjAyODk0MzcgLTg0LCA5My43NTkzNzY1MjU4Nzg5IC04NCBNLTkzLjc1OTM3NjUyNTg3ODkgLTg0IEMtNDguMDg4NjkyMjM3NTA5MzcgLTg0LCAtMi40MTgwMDc5NDkxMzk4MzQ1IC04NCwgOTMuNzU5Mzc2NTI1ODc4OSAtODQgTTkzLjc1OTM3NjUyNTg3ODkgLTg0IEM5My43NTkzNzY1MjU4Nzg5IC0yMS4wNTIwNjY1MDc3ODExNjMsIDkzLjc1OTM3NjUyNTg3ODkgNDEuODk1ODY2OTg0NDM3Njc0LCA5My43NTkzNzY1MjU4Nzg5IDg0IE05My43NTkzNzY1MjU4Nzg5IC04NCBDOTMuNzU5Mzc2NTI1ODc4OSAtNTAuMjkyODIzNzQwMjIwNzA1LCA5My43NTkzNzY1MjU4Nzg5IC0xNi41ODU2NDc0ODA0NDE0MSwgOTMuNzU5Mzc2NTI1ODc4OSA4NCBNOTMuNzU5Mzc2NTI1ODc4OSA4NCBDMzkuMTk2NDA1Mjc4NzI4NDkgODQsIC0xNS4zNjY1NjU5Njg0MjE5MjQgODQsIC05My43NTkzNzY1MjU4Nzg5IDg0IE05My43NTkzNzY1MjU4Nzg5IDg0IEMzOC42NjIxMTU3OTQxNTc1NSA4NCwgLTE2LjQzNTE0NDkzNzU2MzgwNSA4NCwgLTkzLjc1OTM3NjUyNTg3ODkgODQgTS05My43NTkzNzY1MjU4Nzg5IDg0IEMtOTMuNzU5Mzc2NTI1ODc4OSAxOS44NzkyMDE3OTQ3NjYxMTgsIC05My43NTkzNzY1MjU4Nzg5IC00NC4yNDE1OTY0MTA0Njc3NjQsIC05My43NTkzNzY1MjU4Nzg5IC04NCBNLTkzLjc1OTM3NjUyNTg3ODkgODQgQy05My43NTkzNzY1MjU4Nzg5IDQ3LjMzNzIwODM4MjY0MjQ4LCAtOTMuNzU5Mzc2NTI1ODc4OSAxMC42NzQ0MTY3NjUyODQ5NiwgLTkzLjc1OTM3NjUyNTg3ODkgLTg0Ij48L3BhdGg+PC9nPjxnIHRyYW5zZm9ybT0idHJhbnNsYXRlKDAsIC02MCkiIGNsYXNzPSJhbm5vdGF0aW9uLWdyb3VwIHRleHQiPjwvZz48ZyB0cmFuc2Zvcm09InRyYW5zbGF0ZSgtMjIuMzU2MjUwNzYyOTM5NDUzLCAtNjApIiBjbGFzcz0ibGFiZWwtZ3JvdXAgdGV4dCI+PGcgdHJhbnNmb3JtPSJ0cmFuc2xhdGUoMCwtMTIpIiBzdHlsZT0iZm9udC13ZWlnaHQ6IGJvbGRlciIgY2xhc3M9ImxhYmVsIj48Zm9yZWlnbk9iamVjdCBoZWlnaHQ9IjI0IiB3aWR0aD0iNDQuNzEyNTAxNTI1ODc4OTA2Ij48ZGl2IHN0eWxlPSJkaXNwbGF5OiB0YWJsZS1jZWxsOyB3aGl0ZS1zcGFjZTogbm93cmFwOyBsaW5lLWhlaWdodDogMS41OyBtYXgtd2lkdGg6IDkzcHg7IHRleHQtYWxpZ246IGNlbnRlcjsiIHhtbG5zPSJodHRwOi8vd3d3LnczLm9yZy8xOTk5L3hodG1sIj48c3BhbiBzdHlsZT0iIiBjbGFzcz0ibm9kZUxhYmVsIG1hcmtkb3duLW5vZGUtbGFiZWwiPjxwPlNoYXBlPC9wPjwvc3Bhbj48L2Rpdj48L2ZvcmVpZ25PYmplY3Q+PC9nPjwvZz48ZyB0cmFuc2Zvcm09InRyYW5zbGF0ZSgtODEuNzU5Mzc2NTI1ODc4OSwgLTEyKSIgY2xhc3M9Im1lbWJlcnMtZ3JvdXAgdGV4dCI+PGcgdHJhbnNmb3JtPSJ0cmFuc2xhdGUoMCwtMTIpIiBzdHlsZT0iIiBjbGFzcz0ibGFiZWwiPjxmb3JlaWduT2JqZWN0IGhlaWdodD0iMjQiIHdpZHRoPSI4NC40MTI0OTg0NzQxMjExIj48ZGl2IHN0eWxlPSJkaXNwbGF5OiB0YWJsZS1jZWxsOyB3aGl0ZS1zcGFjZTogbm93cmFwOyBsaW5lLWhlaWdodDogMS41OyBtYXgtd2lkdGg6IDE0MnB4OyB0ZXh0LWFsaWduOiBjZW50ZXI7IiB4bWxucz0iaHR0cDovL3d3dy53My5vcmcvMTk5OS94aHRtbCI+PHNwYW4gc3R5bGU9IiIgY2xhc3M9Im5vZGVMYWJlbCBtYXJrZG93bi1ub2RlLWxhYmVsIj48cD4tQ29sb3IgY29sb3I8L3A+PC9zcGFuPjwvZGl2PjwvZm9yZWlnbk9iamVjdD48L2c+PC9nPjxnIHRyYW5zZm9ybT0idHJhbnNsYXRlKC04MS43NTkzNzY1MjU4Nzg5LCAzNikiIGNsYXNzPSJtZXRob2RzLWdyb3VwIHRleHQiPjxnIHRyYW5zZm9ybT0idHJhbnNsYXRlKDAsLTEyKSIgc3R5bGU9IiIgY2xhc3M9ImxhYmVsIj48Zm9yZWlnbk9iamVjdCBoZWlnaHQ9IjI0IiB3aWR0aD0iMTQxLjE2MjUwNjEwMzUxNTYyIj48ZGl2IHN0eWxlPSJkaXNwbGF5OiB0YWJsZS1jZWxsOyB3aGl0ZS1zcGFjZTogbm93cmFwOyBsaW5lLWhlaWdodDogMS41OyBtYXgtd2lkdGg6IDE5OXB4OyB0ZXh0LWFsaWduOiBjZW50ZXI7IiB4bWxucz0iaHR0cDovL3d3dy53My5vcmcvMTk5OS94aHRtbCI+PHNwYW4gc3R5bGU9IiIgY2xhc3M9Im5vZGVMYWJlbCBtYXJrZG93bi1ub2RlLWxhYmVsIj48cD4rU2hhcGUoQ29sb3IgY29sb3IpPC9wPjwvc3Bhbj48L2Rpdj48L2ZvcmVpZ25PYmplY3Q+PC9nPjxnIHRyYW5zZm9ybT0idHJhbnNsYXRlKDAsMTIpIiBzdHlsZT0iZm9udC1zdHlsZTppdGFsaWM7IiBjbGFzcz0ibGFiZWwiPjxmb3JlaWduT2JqZWN0IGhlaWdodD0iMjQiIHdpZHRoPSIxMTQuMzEyNSI+PGRpdiBzdHlsZT0iZGlzcGxheTogdGFibGUtY2VsbDsgd2hpdGUtc3BhY2U6IG5vd3JhcDsgbGluZS1oZWlnaHQ6IDEuNTsgbWF4LXdpZHRoOiAxNjZweDsgdGV4dC1hbGlnbjogY2VudGVyOyIgeG1sbnM9Imh0dHA6Ly93d3cudzMub3JnLzE5OTkveGh0bWwiPjxzcGFuIHN0eWxlPSIiIGNsYXNzPSJub2RlTGFiZWwgbWFya2Rvd24tbm9kZS1sYWJlbCI+PHA+K2RyYXcoKSA6IFN0cmluZzwvcD48L3NwYW4+PC9kaXY+PC9mb3JlaWduT2JqZWN0PjwvZz48L2c+PGcgc3R5bGU9IiIgY2xhc3M9ImRpdmlkZXIiPjxwYXRoIHN0eWxlPSIiIGZpbGw9Im5vbmUiIHN0cm9rZS13aWR0aD0iMS4zIiBzdHJva2U9IiM5OTkiIGQ9Ik0tOTMuNzU5Mzc2NTI1ODc4OSAtMzYgQy0yNS4zNzE4MzQ1MjE1MTcyNzIgLTM2LCA0My4wMTU3MDc0ODI4NDQzNiAtMzYsIDkzLjc1OTM3NjUyNTg3ODkgLTM2IE0tOTMuNzU5Mzc2NTI1ODc4OSAtMzYgQy0zNi41NDk4MzI5NDgxMzU3NDQgLTM2LCAyMC42NTk3MTA2Mjk2MDc0MTcgLTM2LCA5My43NTkzNzY1MjU4Nzg5IC0zNiI+PC9wYXRoPjwvZz48ZyBzdHlsZT0iIiBjbGFzcz0iZGl2aWRlciI+PHBhdGggc3R5bGU9IiIgZmlsbD0ibm9uZSIgc3Ryb2tlLXdpZHRoPSIxLjMiIHN0cm9rZT0iIzk5OSIgZD0iTS05My43NTkzNzY1MjU4Nzg5IDEyIEMtMzIuNTI2MjMyNjYzMTc4NTYgMTIsIDI4LjcwNjkxMTE5OTUyMTc4NCAxMiwgOTMuNzU5Mzc2NTI1ODc4OSAxMiBNLTkzLjc1OTM3NjUyNTg3ODkgMTIgQy0zMy4zODYxMDA4OTU1MTc2MSAxMiwgMjYuOTg3MTc0NzM0ODQzNjkgMTIsIDkzLjc1OTM3NjUyNTg3ODkgMTIiPjwvcGF0aD48L2c+PC9nPjxnIHRyYW5zZm9ybT0idHJhbnNsYXRlKDU3MC4yMzkwODIzMzY0MjU4LCA1MjEuNzk5OTk5MjM3MDYwNSkiIGlkPSJjbGFzc0lkLUNpcmNsZS02IiBjbGFzcz0ibm9kZSBkZWZhdWx0Ij48ZyBjbGFzcz0iYmFzaWMgbGFiZWwtY29udGFpbmVyIj48cGF0aCBzdHlsZT0iIiBmaWxsPSIjZWVlIiBzdHJva2Utd2lkdGg9IjAiIHN0cm9rZT0ibm9uZSIgZD0iTS05My4wNzUwMDQ1Nzc2MzY3MiAtNzUgTDkzLjA3NTAwNDU3NzYzNjcyIC03NSBMOTMuMDc1MDA0NTc3NjM2NzIgNzUgTC05My4wNzUwMDQ1Nzc2MzY3MiA3NSI+PC9wYXRoPjxwYXRoIHN0eWxlPSIiIGZpbGw9Im5vbmUiIHN0cm9rZS13aWR0aD0iMS4zIiBzdHJva2U9IiM5OTkiIGQ9Ik0tOTMuMDc1MDA0NTc3NjM2NzIgLTc1IEMtMzAuOTE1MjE5MjQ0ODg5NyAtNzUsIDMxLjI0NDU2NjA4Nzg1NzMyMiAtNzUsIDkzLjA3NTAwNDU3NzYzNjcyIC03NSBNLTkzLjA3NTAwNDU3NzYzNjcyIC03NSBDLTI4LjYwMzk4MTcwNjMwNzQ2NSAtNzUsIDM1Ljg2NzA0MTE2NTAyMTc5IC03NSwgOTMuMDc1MDA0NTc3NjM2NzIgLTc1IE05My4wNzUwMDQ1Nzc2MzY3MiAtNzUgQzkzLjA3NTAwNDU3NzYzNjcyIC0xNy4xNzA4NDE1NTEwNTM3MjYsIDkzLjA3NTAwNDU3NzYzNjcyIDQwLjY1ODMxNjg5Nzg5MjU1LCA5My4wNzUwMDQ1Nzc2MzY3MiA3NSBNOTMuMDc1MDA0NTc3NjM2NzIgLTc1IEM5My4wNzUwMDQ1Nzc2MzY3MiAtMjIuNTIwNTkxNTM3MDY0NTc2LCA5My4wNzUwMDQ1Nzc2MzY3MiAyOS45NTg4MTY5MjU4NzA4NSwgOTMuMDc1MDA0NTc3NjM2NzIgNzUgTTkzLjA3NTAwNDU3NzYzNjcyIDc1IEM0MS41NjgxOTMzMzM0MjUwODYgNzUsIC05LjkzODYxNzkxMDc4NjU0NyA3NSwgLTkzLjA3NTAwNDU3NzYzNjcyIDc1IE05My4wNzUwMDQ1Nzc2MzY3MiA3NSBDNDUuMzM5MzIzMTA0NDQwMjcgNzUsIC0yLjM5NjM1ODM2ODc1NjE4MjIgNzUsIC05My4wNzUwMDQ1Nzc2MzY3MiA3NSBNLTkzLjA3NTAwNDU3NzYzNjcyIDc1IEMtOTMuMDc1MDA0NTc3NjM2NzIgMzcuMTYxMjcxMDA3MDExODQsIC05My4wNzUwMDQ1Nzc2MzY3MiAtMC42Nzc0NTc5ODU5NzYzMTc5LCAtOTMuMDc1MDA0NTc3NjM2NzIgLTc1IE0tOTMuMDc1MDA0NTc3NjM2NzIgNzUgQy05My4wNzUwMDQ1Nzc2MzY3MiAyMC41OTMzNjE1NjI4NzQyNDMsIC05My4wNzUwMDQ1Nzc2MzY3MiAtMzMuODEzMjc2ODc0MjUxNTE0LCAtOTMuMDc1MDA0NTc3NjM2NzIgLTc1Ij48L3BhdGg+PC9nPjxnIHRyYW5zZm9ybT0idHJhbnNsYXRlKDAsIC01MSkiIGNsYXNzPSJhbm5vdGF0aW9uLWdyb3VwIHRleHQiPjwvZz48ZyB0cmFuc2Zvcm09InRyYW5zbGF0ZSgtMjEuNzUsIC01MSkiIGNsYXNzPSJsYWJlbC1ncm91cCB0ZXh0Ij48ZyB0cmFuc2Zvcm09InRyYW5zbGF0ZSgwLC0xMikiIHN0eWxlPSJmb250LXdlaWdodDogYm9sZGVyIiBjbGFzcz0ibGFiZWwiPjxmb3JlaWduT2JqZWN0IGhlaWdodD0iMjQiIHdpZHRoPSI0My41Ij48ZGl2IHN0eWxlPSJkaXNwbGF5OiB0YWJsZS1jZWxsOyB3aGl0ZS1zcGFjZTogbm93cmFwOyBsaW5lLWhlaWdodDogMS41OyBtYXgtd2lkdGg6IDg5cHg7IHRleHQtYWxpZ246IGNlbnRlcjsiIHhtbG5zPSJodHRwOi8vd3d3LnczLm9yZy8xOTk5L3hodG1sIj48c3BhbiBzdHlsZT0iIiBjbGFzcz0ibm9kZUxhYmVsIG1hcmtkb3duLW5vZGUtbGFiZWwiPjxwPkNpcmNsZTwvcD48L3NwYW4+PC9kaXY+PC9mb3JlaWduT2JqZWN0PjwvZz48L2c+PGcgdHJhbnNmb3JtPSJ0cmFuc2xhdGUoLTgxLjA3NTAwNDU3NzYzNjcyLCAtMykiIGNsYXNzPSJtZW1iZXJzLWdyb3VwIHRleHQiPjwvZz48ZyB0cmFuc2Zvcm09InRyYW5zbGF0ZSgtODEuMDc1MDA0NTc3NjM2NzIsIDI3KSIgY2xhc3M9Im1ldGhvZHMtZ3JvdXAgdGV4dCI+PGcgdHJhbnNmb3JtPSJ0cmFuc2xhdGUoMCwtMTIpIiBzdHlsZT0iIiBjbGFzcz0ibGFiZWwiPjxmb3JlaWduT2JqZWN0IGhlaWdodD0iMjQiIHdpZHRoPSIxNDAuNDAwMDA5MTU1MjczNDQiPjxkaXYgc3R5bGU9ImRpc3BsYXk6IHRhYmxlLWNlbGw7IHdoaXRlLXNwYWNlOiBub3dyYXA7IGxpbmUtaGVpZ2h0OiAxLjU7IG1heC13aWR0aDogMTk1cHg7IHRleHQtYWxpZ246IGNlbnRlcjsiIHhtbG5zPSJodHRwOi8vd3d3LnczLm9yZy8xOTk5L3hodG1sIj48c3BhbiBzdHlsZT0iIiBjbGFzcz0ibm9kZUxhYmVsIG1hcmtkb3duLW5vZGUtbGFiZWwiPjxwPitDaXJjbGUoQ29sb3IgY29sb3IpPC9wPjwvc3Bhbj48L2Rpdj48L2ZvcmVpZ25PYmplY3Q+PC9nPjxnIHRyYW5zZm9ybT0idHJhbnNsYXRlKDAsMTIpIiBzdHlsZT0iIiBjbGFzcz0ibGFiZWwiPjxmb3JlaWduT2JqZWN0IGhlaWdodD0iMjQiIHdpZHRoPSIxMTIuNzAwMDA0NTc3NjM2NzIiPjxkaXYgc3R5bGU9ImRpc3BsYXk6IHRhYmxlLWNlbGw7IHdoaXRlLXNwYWNlOiBub3dyYXA7IGxpbmUtaGVpZ2h0OiAxLjU7IG1heC13aWR0aDogMTY2cHg7IHRleHQtYWxpZ246IGNlbnRlcjsiIHhtbG5zPSJodHRwOi8vd3d3LnczLm9yZy8xOTk5L3hodG1sIj48c3BhbiBzdHlsZT0iIiBjbGFzcz0ibm9kZUxhYmVsIG1hcmtkb3duLW5vZGUtbGFiZWwiPjxwPitkcmF3KCkgOiBTdHJpbmc8L3A+PC9zcGFuPjwvZGl2PjwvZm9yZWlnbk9iamVjdD48L2c+PC9nPjxnIHN0eWxlPSIiIGNsYXNzPSJkaXZpZGVyIj48cGF0aCBzdHlsZT0iIiBmaWxsPSJub25lIiBzdHJva2Utd2lkdGg9IjEuMyIgc3Ryb2tlPSIjOTk5IiBkPSJNLTkzLjA3NTAwNDU3NzYzNjcyIC0yNyBDLTUzLjEzNDA2MjU0NzExOTUgLTI3LCAtMTMuMTkzMTIwNTE2NjAyMjc4IC0yNywgOTMuMDc1MDA0NTc3NjM2NzIgLTI3IE0tOTMuMDc1MDA0NTc3NjM2NzIgLTI3IEMtMjEuNjczNTk3ODQyNzE3MjcgLTI3LCA0OS43Mjc4MDg4OTIyMDIxOCAtMjcsIDkzLjA3NTAwNDU3NzYzNjcyIC0yNyI+PC9wYXRoPjwvZz48ZyBzdHlsZT0iIiBjbGFzcz0iZGl2aWRlciI+PHBhdGggc3R5bGU9IiIgZmlsbD0ibm9uZSIgc3Ryb2tlLXdpZHRoPSIxLjMiIHN0cm9rZT0iIzk5OSIgZD0iTS05My4wNzUwMDQ1Nzc2MzY3MiAtMyBDLTM5LjU0NTI1Mjg3NTczNTY4IC0zLCAxMy45ODQ0OTg4MjYxNjUzNjQgLTMsIDkzLjA3NTAwNDU3NzYzNjcyIC0zIE0tOTMuMDc1MDA0NTc3NjM2NzIgLTMgQy0yOC4zNDU4NDQ4MjM3ODMzNTIgLTMsIDM2LjM4MzMxNDkzMDA3MDAxNCAtMywgOTMuMDc1MDA0NTc3NjM2NzIgLTMiPjwvcGF0aD48L2c+PC9nPjxnIHRyYW5zZm9ybT0idHJhbnNsYXRlKDgxMS44ODU5NjM0Mzk5NDE0LCA1MjEuNzk5OTk5MjM3MDYwNSkiIGlkPSJjbGFzc0lkLVNxdWFyZS03IiBjbGFzcz0ibm9kZSBkZWZhdWx0Ij48ZyBjbGFzcz0iYmFzaWMgbGFiZWwtY29udGFpbmVyIj48cGF0aCBzdHlsZT0iIiBmaWxsPSIjZWVlIiBzdHJva2Utd2lkdGg9IjAiIHN0cm9rZT0ibm9uZSIgZD0iTS05OC41NzE4NzY1MjU4Nzg5IC03NSBMOTguNTcxODc2NTI1ODc4OSAtNzUgTDk4LjU3MTg3NjUyNTg3ODkgNzUgTC05OC41NzE4NzY1MjU4Nzg5IDc1Ij48L3BhdGg+PHBhdGggc3R5bGU9IiIgZmlsbD0ibm9uZSIgc3Ryb2tlLXdpZHRoPSIxLjMiIHN0cm9rZT0iIzk5OSIgZD0iTS05OC41NzE4NzY1MjU4Nzg5IC03NSBDLTIzLjY3OTE3NzQwNjQ1MTY1NyAtNzUsIDUxLjIxMzUyMTcxMjk3NTU5IC03NSwgOTguNTcxODc2NTI1ODc4OSAtNzUgTS05OC41NzE4NzY1MjU4Nzg5IC03NSBDLTIyLjY4OTIwODU3NTI2OTI2MiAtNzUsIDUzLjE5MzQ1OTM3NTM0MDM4IC03NSwgOTguNTcxODc2NTI1ODc4OSAtNzUgTTk4LjU3MTg3NjUyNTg3ODkgLTc1IEM5OC41NzE4NzY1MjU4Nzg5IC0zOC42MzQ2NzIyMDU2ODI3NywgOTguNTcxODc2NTI1ODc4OSAtMi4yNjkzNDQ0MTEzNjU1Mzc0LCA5OC41NzE4NzY1MjU4Nzg5IDc1IE05OC41NzE4NzY1MjU4Nzg5IC03NSBDOTguNTcxODc2NTI1ODc4OSAtMzcuNDc2MDgzNDg2MDU4MTk0LCA5OC41NzE4NzY1MjU4Nzg5IDAuMDQ3ODMzMDI3ODgzNjEyNTQ0LCA5OC41NzE4NzY1MjU4Nzg5IDc1IE05OC41NzE4NzY1MjU4Nzg5IDc1IEM1MS41ODc0NDMwOTczNDA2OSA3NSwgNC42MDMwMDk2Njg4MDI0NzEgNzUsIC05OC41NzE4NzY1MjU4Nzg5IDc1IE05OC41NzE4NzY1MjU4Nzg5IDc1IEM1OS4xMzA0ODk5MDE2ODM1NSA3NSwgMTkuNjg5MTAzMjc3NDg4MiA3NSwgLTk4LjU3MTg3NjUyNTg3ODkgNzUgTS05OC41NzE4NzY1MjU4Nzg5IDc1IEMtOTguNTcxODc2NTI1ODc4OSA0MS45NjQ3MTUzNDcwNDE5OTUsIC05OC41NzE4NzY1MjU4Nzg5IDguOTI5NDMwNjk0MDgzOTksIC05OC41NzE4NzY1MjU4Nzg5IC03NSBNLTk4LjU3MTg3NjUyNTg3ODkgNzUgQy05OC41NzE4NzY1MjU4Nzg5IDMzLjk5ODYzOTI2MTk1MzA0NSwgLTk4LjU3MTg3NjUyNTg3ODkgLTcuMDAyNzIxNDc2MDkzOTEsIC05OC41NzE4NzY1MjU4Nzg5IC03NSI+PC9wYXRoPjwvZz48ZyB0cmFuc2Zvcm09InRyYW5zbGF0ZSgwLCAtNTEpIiBjbGFzcz0iYW5ub3RhdGlvbi1ncm91cCB0ZXh0Ij48L2c+PGcgdHJhbnNmb3JtPSJ0cmFuc2xhdGUoLTI1Ljc2ODc1MTE0NDQwOTE4LCAtNTEpIiBjbGFzcz0ibGFiZWwtZ3JvdXAgdGV4dCI+PGcgdHJhbnNmb3JtPSJ0cmFuc2xhdGUoMCwtMTIpIiBzdHlsZT0iZm9udC13ZWlnaHQ6IGJvbGRlciIgY2xhc3M9ImxhYmVsIj48Zm9yZWlnbk9iamVjdCBoZWlnaHQ9IjI0IiB3aWR0aD0iNTEuNTM3NTAyMjg4ODE4MzYiPjxkaXYgc3R5bGU9ImRpc3BsYXk6IHRhYmxlLWNlbGw7IHdoaXRlLXNwYWNlOiBub3dyYXA7IGxpbmUtaGVpZ2h0OiAxLjU7IG1heC13aWR0aDogOTlweDsgdGV4dC1hbGlnbjogY2VudGVyOyIgeG1sbnM9Imh0dHA6Ly93d3cudzMub3JnLzE5OTkveGh0bWwiPjxzcGFuIHN0eWxlPSIiIGNsYXNzPSJub2RlTGFiZWwgbWFya2Rvd24tbm9kZS1sYWJlbCI+PHA+U3F1YXJlPC9wPjwvc3Bhbj48L2Rpdj48L2ZvcmVpZ25PYmplY3Q+PC9nPjwvZz48ZyB0cmFuc2Zvcm09InRyYW5zbGF0ZSgtODYuNTcxODc2NTI1ODc4OSwgLTMpIiBjbGFzcz0ibWVtYmVycy1ncm91cCB0ZXh0Ij48L2c+PGcgdHJhbnNmb3JtPSJ0cmFuc2xhdGUoLTg2LjU3MTg3NjUyNTg3ODksIDI3KSIgY2xhc3M9Im1ldGhvZHMtZ3JvdXAgdGV4dCI+PGcgdHJhbnNmb3JtPSJ0cmFuc2xhdGUoMCwtMTIpIiBzdHlsZT0iIiBjbGFzcz0ibGFiZWwiPjxmb3JlaWduT2JqZWN0IGhlaWdodD0iMjQiIHdpZHRoPSIxNDcuMzc1Ij48ZGl2IHN0eWxlPSJkaXNwbGF5OiB0YWJsZS1jZWxsOyB3aGl0ZS1zcGFjZTogbm93cmFwOyBsaW5lLWhlaWdodDogMS41OyBtYXgtd2lkdGg6IDIwNXB4OyB0ZXh0LWFsaWduOiBjZW50ZXI7IiB4bWxucz0iaHR0cDovL3d3dy53My5vcmcvMTk5OS94aHRtbCI+PHNwYW4gc3R5bGU9IiIgY2xhc3M9Im5vZGVMYWJlbCBtYXJrZG93bi1ub2RlLWxhYmVsIj48cD4rU3F1YXJlKENvbG9yIGNvbG9yKTwvcD48L3NwYW4+PC9kaXY+PC9mb3JlaWduT2JqZWN0PjwvZz48ZyB0cmFuc2Zvcm09InRyYW5zbGF0ZSgwLDEyKSIgc3R5bGU9IiIgY2xhc3M9ImxhYmVsIj48Zm9yZWlnbk9iamVjdCBoZWlnaHQ9IjI0IiB3aWR0aD0iMTEyLjcwMDAwNDU3NzYzNjcyIj48ZGl2IHN0eWxlPSJkaXNwbGF5OiB0YWJsZS1jZWxsOyB3aGl0ZS1zcGFjZTogbm93cmFwOyBsaW5lLWhlaWdodDogMS41OyBtYXgtd2lkdGg6IDE2NnB4OyB0ZXh0LWFsaWduOiBjZW50ZXI7IiB4bWxucz0iaHR0cDovL3d3dy53My5vcmcvMTk5OS94aHRtbCI+PHNwYW4gc3R5bGU9IiIgY2xhc3M9Im5vZGVMYWJlbCBtYXJrZG93bi1ub2RlLWxhYmVsIj48cD4rZHJhdygpIDogU3RyaW5nPC9wPjwvc3Bhbj48L2Rpdj48L2ZvcmVpZ25PYmplY3Q+PC9nPjwvZz48ZyBzdHlsZT0iIiBjbGFzcz0iZGl2aWRlciI+PHBhdGggc3R5bGU9IiIgZmlsbD0ibm9uZSIgc3Ryb2tlLXdpZHRoPSIxLjMiIHN0cm9rZT0iIzk5OSIgZD0iTS05OC41NzE4NzY1MjU4Nzg5IC0yNyBDLTMwLjcyODU2NjIwMDU4MDI0NiAtMjcsIDM3LjExNDc0NDEyNDcxODQxIC0yNywgOTguNTcxODc2NTI1ODc4OSAtMjcgTS05OC41NzE4NzY1MjU4Nzg5IC0yNyBDLTQ3LjM4MjA4ODYwNTI0Mjg2IC0yNywgMy44MDc2OTkzMTUzOTMxNzk1IC0yNywgOTguNTcxODc2NTI1ODc4OSAtMjciPjwvcGF0aD48L2c+PGcgc3R5bGU9IiIgY2xhc3M9ImRpdmlkZXIiPjxwYXRoIHN0eWxlPSIiIGZpbGw9Im5vbmUiIHN0cm9rZS13aWR0aD0iMS4zIiBzdHJva2U9IiM5OTkiIGQ9Ik0tOTguNTcxODc2NTI1ODc4OSAtMyBDLTMzLjUxNDM5MTExOTAzNTkzNSAtMywgMzEuNTQzMDk0Mjg3ODA3MDM3IC0zLCA5OC41NzE4NzY1MjU4Nzg5IC0zIE0tOTguNTcxODc2NTI1ODc4OSAtMyBDLTM1LjYxNjAyNTM3MjQ0MTAxIC0zLCAyNy4zMzk4MjU3ODA5OTY4OSAtMywgOTguNTcxODc2NTI1ODc4OSAtMyI+PC9wYXRoPjwvZz48L2c+PGcgdHJhbnNmb3JtPSJ0cmFuc2xhdGUoMTA3NS4yOTUzNDkxMjEwOTM4LCA1MjEuNzk5OTk5MjM3MDYwNSkiIGlkPSJjbGFzc0lkLVJlY3RhbmdsZS04IiBjbGFzcz0ibm9kZSBkZWZhdWx0Ij48ZyBjbGFzcz0iYmFzaWMgbGFiZWwtY29udGFpbmVyIj48cGF0aCBzdHlsZT0iIiBmaWxsPSIjZWVlIiBzdHJva2Utd2lkdGg9IjAiIHN0cm9rZT0ibm9uZSIgZD0iTS0xMTQuODM3NTA5MTU1MjczNDQgLTc1IEwxMTQuODM3NTA5MTU1MjczNDQgLTc1IEwxMTQuODM3NTA5MTU1MjczNDQgNzUgTC0xMTQuODM3NTA5MTU1MjczNDQgNzUiPjwvcGF0aD48cGF0aCBzdHlsZT0iIiBmaWxsPSJub25lIiBzdHJva2Utd2lkdGg9IjEuMyIgc3Ryb2tlPSIjOTk5IiBkPSJNLTExNC44Mzc1MDkxNTUyNzM0NCAtNzUgQy0zMS4yMzc0MDMxNDk4NDMxNDYgLTc1LCA1Mi4zNjI3MDI4NTU1ODcxNDUgLTc1LCAxMTQuODM3NTA5MTU1MjczNDQgLTc1IE0tMTE0LjgzNzUwOTE1NTI3MzQ0IC03NSBDLTY1LjA0ODA4MzE1NTI5ODQzIC03NSwgLTE1LjI1ODY1NzE1NTMyMzQwNSAtNzUsIDExNC44Mzc1MDkxNTUyNzM0NCAtNzUgTTExNC44Mzc1MDkxNTUyNzM0NCAtNzUgQzExNC44Mzc1MDkxNTUyNzM0NCAtMjguNTA0NTgwNzQ5NDc4NjksIDExNC44Mzc1MDkxNTUyNzM0NCAxNy45OTA4Mzg1MDEwNDI2MTcsIDExNC44Mzc1MDkxNTUyNzM0NCA3NSBNMTE0LjgzNzUwOTE1NTI3MzQ0IC03NSBDMTE0LjgzNzUwOTE1NTI3MzQ0IC0zOC4zMTIxMTE1MDk0ODcwNDYsIDExNC44Mzc1MDkxNTUyNzM0NCAtMS42MjQyMjMwMTg5NzQwOTIzLCAxMTQuODM3NTA5MTU1MjczNDQgNzUgTTExNC44Mzc1MDkxNTUyNzM0NCA3NSBDMzMuNzMzMTExMjk3NzQ4MzQgNzUsIC00Ny4zNzEyODY1NTk3NzY3NiA3NSwgLTExNC44Mzc1MDkxNTUyNzM0NCA3NSBNMTE0LjgzNzUwOTE1NTI3MzQ0IDc1IEMzNS43MzUwMjA2NjUyNDk5OSA3NSwgLTQzLjM2NzQ2NzgyNDc3MzQ1NiA3NSwgLTExNC44Mzc1MDkxNTUyNzM0NCA3NSBNLTExNC44Mzc1MDkxNTUyNzM0NCA3NSBDLTExNC44Mzc1MDkxNTUyNzM0NCAzMi45MTU3OTEyOTAyNDUzOCwgLTExNC44Mzc1MDkxNTUyNzM0NCAtOS4xNjg0MTc0MTk1MDkyNCwgLTExNC44Mzc1MDkxNTUyNzM0NCAtNzUgTS0xMTQuODM3NTA5MTU1MjczNDQgNzUgQy0xMTQuODM3NTA5MTU1MjczNDQgNDIuNTIwMzE1Mjc0MDIxMDYsIC0xMTQuODM3NTA5MTU1MjczNDQgMTAuMDQwNjMwNTQ4MDQyMTE3LCAtMTE0LjgzNzUwOTE1NTI3MzQ0IC03NSI+PC9wYXRoPjwvZz48ZyB0cmFuc2Zvcm09InRyYW5zbGF0ZSgwLCAtNTEpIiBjbGFzcz0iYW5ub3RhdGlvbi1ncm91cCB0ZXh0Ij48L2c+PGcgdHJhbnNmb3JtPSJ0cmFuc2xhdGUoLTM2LjcxMjUwMTUyNTg3ODkwNiwgLTUxKSIgY2xhc3M9ImxhYmVsLWdyb3VwIHRleHQiPjxnIHRyYW5zZm9ybT0idHJhbnNsYXRlKDAsLTEyKSIgc3R5bGU9ImZvbnQtd2VpZ2h0OiBib2xkZXIiIGNsYXNzPSJsYWJlbCI+PGZvcmVpZ25PYmplY3QgaGVpZ2h0PSIyNCIgd2lkdGg9IjczLjQyNTAwMzA1MTc1NzgxIj48ZGl2IHN0eWxlPSJkaXNwbGF5OiB0YWJsZS1jZWxsOyB3aGl0ZS1zcGFjZTogbm93cmFwOyBsaW5lLWhlaWdodDogMS41OyBtYXgtd2lkdGg6IDExOXB4OyB0ZXh0LWFsaWduOiBjZW50ZXI7IiB4bWxucz0iaHR0cDovL3d3dy53My5vcmcvMTk5OS94aHRtbCI+PHNwYW4gc3R5bGU9IiIgY2xhc3M9Im5vZGVMYWJlbCBtYXJrZG93bi1ub2RlLWxhYmVsIj48cD5SZWN0YW5nbGU8L3A+PC9zcGFuPjwvZGl2PjwvZm9yZWlnbk9iamVjdD48L2c+PC9nPjxnIHRyYW5zZm9ybT0idHJhbnNsYXRlKC0xMDIuODM3NTA5MTU1MjczNDQsIC0zKSIgY2xhc3M9Im1lbWJlcnMtZ3JvdXAgdGV4dCI+PC9nPjxnIHRyYW5zZm9ybT0idHJhbnNsYXRlKC0xMDIuODM3NTA5MTU1MjczNDQsIDI3KSIgY2xhc3M9Im1ldGhvZHMtZ3JvdXAgdGV4dCI+PGcgdHJhbnNmb3JtPSJ0cmFuc2xhdGUoMCwtMTIpIiBzdHlsZT0iIiBjbGFzcz0ibGFiZWwiPjxmb3JlaWduT2JqZWN0IGhlaWdodD0iMjQiIHdpZHRoPSIxNjguOTYyNTA5MTU1MjczNDQiPjxkaXYgc3R5bGU9ImRpc3BsYXk6IHRhYmxlLWNlbGw7IHdoaXRlLXNwYWNlOiBub3dyYXA7IGxpbmUtaGVpZ2h0OiAxLjU7IG1heC13aWR0aDogMjI1cHg7IHRleHQtYWxpZ246IGNlbnRlcjsiIHhtbG5zPSJodHRwOi8vd3d3LnczLm9yZy8xOTk5L3hodG1sIj48c3BhbiBzdHlsZT0iIiBjbGFzcz0ibm9kZUxhYmVsIG1hcmtkb3duLW5vZGUtbGFiZWwiPjxwPitSZWN0YW5nbGUoQ29sb3IgY29sb3IpPC9wPjwvc3Bhbj48L2Rpdj48L2ZvcmVpZ25PYmplY3Q+PC9nPjxnIHRyYW5zZm9ybT0idHJhbnNsYXRlKDAsMTIpIiBzdHlsZT0iIiBjbGFzcz0ibGFiZWwiPjxmb3JlaWduT2JqZWN0IGhlaWdodD0iMjQiIHdpZHRoPSIxMTIuNzAwMDA0NTc3NjM2NzIiPjxkaXYgc3R5bGU9ImRpc3BsYXk6IHRhYmxlLWNlbGw7IHdoaXRlLXNwYWNlOiBub3dyYXA7IGxpbmUtaGVpZ2h0OiAxLjU7IG1heC13aWR0aDogMTY2cHg7IHRleHQtYWxpZ246IGNlbnRlcjsiIHhtbG5zPSJodHRwOi8vd3d3LnczLm9yZy8xOTk5L3hodG1sIj48c3BhbiBzdHlsZT0iIiBjbGFzcz0ibm9kZUxhYmVsIG1hcmtkb3duLW5vZGUtbGFiZWwiPjxwPitkcmF3KCkgOiBTdHJpbmc8L3A+PC9zcGFuPjwvZGl2PjwvZm9yZWlnbk9iamVjdD48L2c+PC9nPjxnIHN0eWxlPSIiIGNsYXNzPSJkaXZpZGVyIj48cGF0aCBzdHlsZT0iIiBmaWxsPSJub25lIiBzdHJva2Utd2lkdGg9IjEuMyIgc3Ryb2tlPSIjOTk5IiBkPSJNLTExNC44Mzc1MDkxNTUyNzM0NCAtMjcgQy00Mi45NjM4NDEzNzE1ODEyOCAtMjcsIDI4LjkwOTgyNjQxMjExMDg3NCAtMjcsIDExNC44Mzc1MDkxNTUyNzM0NCAtMjcgTS0xMTQuODM3NTA5MTU1MjczNDQgLTI3IEMtNTkuMjIxMDc5ODc3OTYxMjE2IC0yNywgLTMuNjA0NjUwNjAwNjQ4OTk1IC0yNywgMTE0LjgzNzUwOTE1NTI3MzQ0IC0yNyI+PC9wYXRoPjwvZz48ZyBzdHlsZT0iIiBjbGFzcz0iZGl2aWRlciI+PHBhdGggc3R5bGU9IiIgZmlsbD0ibm9uZSIgc3Ryb2tlLXdpZHRoPSIxLjMiIHN0cm9rZT0iIzk5OSIgZD0iTS0xMTQuODM3NTA5MTU1MjczNDQgLTMgQy0yNS4xMjk4MTU0Mjc3NzA0NCAtMywgNjQuNTc3ODc4Mjk5NzMyNTYgLTMsIDExNC44Mzc1MDkxNTUyNzM0NCAtMyBNLTExNC44Mzc1MDkxNTUyNzM0NCAtMyBDLTQ3Ljc5MDg0ODE2MjcyNzc1NSAtMywgMTkuMjU1ODEyODI5ODE3OTI3IC0zLCAxMTQuODM3NTA5MTU1MjczNDQgLTMiPjwvcGF0aD48L2c+PC9nPjxnIHRyYW5zZm9ybT0idHJhbnNsYXRlKDgwNC43MjY1ODkyMDI4ODA5LCA3MSkiIGlkPSJjbGFzc0lkLUJyaWRnZURQLTkiIGNsYXNzPSJub2RlIGRlZmF1bHQiPjxnIGNsYXNzPSJiYXNpYyBsYWJlbC1jb250YWluZXIiPjxwYXRoIHN0eWxlPSIiIGZpbGw9IiNlZWUiIHN0cm9rZS13aWR0aD0iMCIgc3Ryb2tlPSJub25lIiBkPSJNLTEwMC4wNTAwMDMwNTE3NTc4MSAtNjMgTDEwMC4wNTAwMDMwNTE3NTc4MSAtNjMgTDEwMC4wNTAwMDMwNTE3NTc4MSA2MyBMLTEwMC4wNTAwMDMwNTE3NTc4MSA2MyI+PC9wYXRoPjxwYXRoIHN0eWxlPSIiIGZpbGw9Im5vbmUiIHN0cm9rZS13aWR0aD0iMS4zIiBzdHJva2U9IiM5OTkiIGQ9Ik0tMTAwLjA1MDAwMzA1MTc1NzgxIC02MyBDLTU4LjEyNDk1MTYzNDYzMDkwNCAtNjMsIC0xNi4xOTk5MDAyMTc1MDM5OTUgLTYzLCAxMDAuMDUwMDAzMDUxNzU3ODEgLTYzIE0tMTAwLjA1MDAwMzA1MTc1NzgxIC02MyBDLTM4LjQzNTk1NzY3Njc0OTc5IC02MywgMjMuMTc4MDg3Njk4MjU4MjQgLTYzLCAxMDAuMDUwMDAzMDUxNzU3ODEgLTYzIE0xMDAuMDUwMDAzMDUxNzU3ODEgLTYzIEMxMDAuMDUwMDAzMDUxNzU3ODEgLTI2Ljg1OTk1MjQxNzE5NzcwNCwgMTAwLjA1MDAwMzA1MTc1NzgxIDkuMjgwMDk1MTY1NjA0NTkyLCAxMDAuMDUwMDAzMDUxNzU3ODEgNjMgTTEwMC4wNTAwMDMwNTE3NTc4MSAtNjMgQzEwMC4wNTAwMDMwNTE3NTc4MSAtMTIuOTQ0MTI2MDk4NjMwMDg2LCAxMDAuMDUwMDAzMDUxNzU3ODEgMzcuMTExNzQ3ODAyNzM5ODMsIDEwMC4wNTAwMDMwNTE3NTc4MSA2MyBNMTAwLjA1MDAwMzA1MTc1NzgxIDYzIEMzNy45NzExNTA2OTkxOTMyNyA2MywgLTI0LjEwNzcwMTY1MzM3MTI4IDYzLCAtMTAwLjA1MDAwMzA1MTc1NzgxIDYzIE0xMDAuMDUwMDAzMDUxNzU3ODEgNjMgQzQxLjk5NzAyMTA1MjQ5ODg3IDYzLCAtMTYuMDU1OTYwOTQ2NzYwMDY3IDYzLCAtMTAwLjA1MDAwMzA1MTc1NzgxIDYzIE0tMTAwLjA1MDAwMzA1MTc1NzgxIDYzIEMtMTAwLjA1MDAwMzA1MTc1NzgxIDI1LjEzMTY1NDc4Njk2NTA1OCwgLTEwMC4wNTAwMDMwNTE3NTc4MSAtMTIuNzM2NjkwNDI2MDY5ODg1LCAtMTAwLjA1MDAwMzA1MTc1NzgxIC02MyBNLTEwMC4wNTAwMDMwNTE3NTc4MSA2MyBDLTEwMC4wNTAwMDMwNTE3NTc4MSAzNS4wMTQ3OTAzMTk0MTM3MSwgLTEwMC4wNTAwMDMwNTE3NTc4MSA3LjAyOTU4MDYzODgyNzQyNiwgLTEwMC4wNTAwMDMwNTE3NTc4MSAtNjMiPjwvcGF0aD48L2c+PGcgdHJhbnNmb3JtPSJ0cmFuc2xhdGUoMCwgLTM5KSIgY2xhc3M9ImFubm90YXRpb24tZ3JvdXAgdGV4dCI+PC9nPjxnIHRyYW5zZm9ybT0idHJhbnNsYXRlKC0zMy42NjI1MDIyODg4MTgzNiwgLTM5KSIgY2xhc3M9ImxhYmVsLWdyb3VwIHRleHQiPjxnIHRyYW5zZm9ybT0idHJhbnNsYXRlKDAsLTEyKSIgc3R5bGU9ImZvbnQtd2VpZ2h0OiBib2xkZXIiIGNsYXNzPSJsYWJlbCI+PGZvcmVpZ25PYmplY3QgaGVpZ2h0PSIyNCIgd2lkdGg9IjY3LjMyNTAwNDU3NzYzNjcyIj48ZGl2IHN0eWxlPSJkaXNwbGF5OiB0YWJsZS1jZWxsOyB3aGl0ZS1zcGFjZTogbm93cmFwOyBsaW5lLWhlaWdodDogMS41OyBtYXgtd2lkdGg6IDExNnB4OyB0ZXh0LWFsaWduOiBjZW50ZXI7IiB4bWxucz0iaHR0cDovL3d3dy53My5vcmcvMTk5OS94aHRtbCI+PHNwYW4gc3R5bGU9IiIgY2xhc3M9Im5vZGVMYWJlbCBtYXJrZG93bi1ub2RlLWxhYmVsIj48cD5CcmlkZ2VEUDwvcD48L3NwYW4+PC9kaXY+PC9mb3JlaWduT2JqZWN0PjwvZz48L2c+PGcgdHJhbnNmb3JtPSJ0cmFuc2xhdGUoLTg4LjA1MDAwMzA1MTc1NzgxLCA5KSIgY2xhc3M9Im1lbWJlcnMtZ3JvdXAgdGV4dCI+PC9nPjxnIHRyYW5zZm9ybT0idHJhbnNsYXRlKC04OC4wNTAwMDMwNTE3NTc4MSwgMzkpIiBjbGFzcz0ibWV0aG9kcy1ncm91cCB0ZXh0Ij48ZyB0cmFuc2Zvcm09InRyYW5zbGF0ZSgwLC0xMikiIHN0eWxlPSIiIGNsYXNzPSJsYWJlbCI+PGZvcmVpZ25PYmplY3QgaGVpZ2h0PSIyNCIgd2lkdGg9IjE0Mi40Mzc1Ij48ZGl2IHN0eWxlPSJkaXNwbGF5OiB0YWJsZS1jZWxsOyB3aGl0ZS1zcGFjZTogbm93cmFwOyBsaW5lLWhlaWdodDogMS41OyBtYXgtd2lkdGg6IDE5OHB4OyB0ZXh0LWFsaWduOiBjZW50ZXI7IiB4bWxucz0iaHR0cDovL3d3dy53My5vcmcvMTk5OS94aHRtbCI+PHNwYW4gc3R5bGU9IiIgY2xhc3M9Im5vZGVMYWJlbCBtYXJrZG93bi1ub2RlLWxhYmVsIj48cD4rbWFpbihTdHJpbmdbXSBhcmdzKTwvcD48L3NwYW4+PC9kaXY+PC9mb3JlaWduT2JqZWN0PjwvZz48L2c+PGcgc3R5bGU9IiIgY2xhc3M9ImRpdmlkZXIiPjxwYXRoIHN0eWxlPSIiIGZpbGw9Im5vbmUiIHN0cm9rZS13aWR0aD0iMS4zIiBzdHJva2U9IiM5OTkiIGQ9Ik0tMTAwLjA1MDAwMzA1MTc1NzgxIC0xNSBDLTQ0Ljk5Nzk2ODg3ODU3ODYxIC0xNSwgMTAuMDU0MDY1Mjk0NjAwNTkgLTE1LCAxMDAuMDUwMDAzMDUxNzU3ODEgLTE1IE0tMTAwLjA1MDAwMzA1MTc1NzgxIC0xNSBDLTI1LjkwMzQ5MzM3MjE4MDc3NiAtMTUsIDQ4LjI0MzAxNjMwNzM5NjI2IC0xNSwgMTAwLjA1MDAwMzA1MTc1NzgxIC0xNSI+PC9wYXRoPjwvZz48ZyBzdHlsZT0iIiBjbGFzcz0iZGl2aWRlciI+PHBhdGggc3R5bGU9IiIgZmlsbD0ibm9uZSIgc3Ryb2tlLXdpZHRoPSIxLjMiIHN0cm9rZT0iIzk5OSIgZD0iTS0xMDAuMDUwMDAzMDUxNzU3ODEgOSBDLTM1LjkxNDczMTI1MjQ0NTE5IDksIDI4LjIyMDU0MDU0Njg2NzQyNiA5LCAxMDAuMDUwMDAzMDUxNzU3ODEgOSBNLTEwMC4wNTAwMDMwNTE3NTc4MSA5IEMtMjUuNzcwMzU0MDYzODA4MjQgOSwgNDguNTA5Mjk0OTI0MTQxMzMgOSwgMTAwLjA1MDAwMzA1MTc1NzgxIDkiPjwvcGF0aD48L2c+PC9nPjwvZz48L2c+PC9nPjwvc3ZnPg==;" vertex="1" parent="1">
                        <mxGeometry x="-210" y="-110" width="1198.1329345703125" height="803.2000732421875" as="geometry"/>
                    </mxCell>
                </UserObject>
            </root>
        </mxGraphModel>
    </diagram>
</mxfile>